<?xml version="1.0" encoding="utf-8"?>
<!-- Generator: Adobe Illustrator 21.1.0, SVG Export Plug-In . SVG Version: 6.00 Build 0)  -->
<svg version="1.1" id="Layer_1" xmlns="http://www.w3.org/2000/svg" xmlns:xlink="http://www.w3.org/1999/xlink" x="0px" y="0px"
	 viewBox="0 0 190 190" style="enable-background:new 0 0 190 190;" xml:space="preserve">
<style type="text/css">
	.st0{fill:#00B6DE;}
	.st1{fill:#FFFFFF;}
</style>
<g>
	<g>
		<circle class="st0" cx="95.5" cy="97" r="90"/>
	</g>
</g>
<g>
	<path class="st1" d="M52.4,98l19.7,11.6c0.8,0.5,1.4,1,1.7,1.4c0.3,0.5,0.5,1,0.5,1.6c0,0.7-0.2,1.2-0.5,1.6s-0.7,0.6-1.3,0.6
		c-0.3,0-0.5-0.1-0.8-0.2s-0.7-0.3-1.3-0.7L49,101.2c-0.1,0-0.2-0.1-0.3-0.1c-1.6-1-2.5-2-2.5-3.2s0.8-2.2,2.4-3.1
		c0.1-0.1,0.3-0.2,0.3-0.2l21.4-12.5c0.5-0.3,0.9-0.5,1.2-0.6c0.3-0.1,0.6-0.2,0.9-0.2c0.6,0,1,0.2,1.3,0.6s0.5,0.9,0.5,1.6
		c0,0.6-0.2,1.2-0.5,1.6c-0.3,0.5-0.9,0.9-1.7,1.4L52.4,98z"/>
	<path class="st1" d="M89.5,120.6c-0.4,1.1-0.8,1.9-1.1,2.3s-0.8,0.6-1.2,0.6c-0.5,0-0.9-0.2-1.3-0.7s-0.6-1-0.6-1.7
		c0-0.2,0-0.4,0.1-0.6s0.1-0.5,0.2-0.8l16.8-46.1c0.4-1.2,0.8-2,1.2-2.4c0.3-0.4,0.8-0.6,1.2-0.6c0.5,0,1,0.2,1.4,0.7s0.6,1,0.6,1.6
		c0,0.2,0,0.4-0.1,0.6c0,0.2-0.1,0.4-0.2,0.7L89.5,120.6z"/>
	<path class="st1" d="M135.7,98l-19.6-11.5c-0.8-0.5-1.4-1-1.7-1.4c-0.3-0.5-0.5-1-0.5-1.6c0-0.7,0.2-1.2,0.5-1.6s0.7-0.6,1.3-0.6
		c0.3,0,0.6,0.1,0.9,0.2s0.7,0.3,1.2,0.6l21.4,12.5c0.1,0,0.2,0.1,0.3,0.2c1.6,0.9,2.4,1.9,2.4,3.1c0,1.1-0.8,2.1-2.4,3.1
		c-0.2,0.1-0.3,0.2-0.4,0.2L117.7,114l-0.1,0.1c-0.9,0.5-1.6,0.8-2,0.8c-0.5,0-1-0.2-1.3-0.6s-0.5-1-0.5-1.6s0.2-1.1,0.5-1.6
		s0.9-0.9,1.7-1.4L135.7,98z"/>
</g>
</svg>
