<svg width="140" height="141" viewBox="0 0 140 141" xmlns="http://www.w3.org/2000/svg"><title>Slice 1</title><desc>Created with Sketch.</desc><g id="Page-1" fill="none" fill-rule="evenodd"><path d="M140,38.2372881 L140,133.830508 C140,137.813559 136.818182,141 132.840909,141 L57.2727273,141 C53.2954545,141 50.1136364,137.813559 50.1136364,133.830508 L50.1136364,111.525424 L7.15909091,111.525424 C3.18181818,111.525424 0,108.338983 0,104.355932 L0,50.1864407 C0,46.2033898 2.38636364,40.6271186 5.56818182,37.440678 L37.3863636,5.57627119 C40.5681818,2.38983051 46.1363636,0 50.1136364,0 L82.7272727,0 C86.7045455,0 89.8863636,3.18644068 89.8863636,7.16949153 L89.8863636,32.6610169 C93.0681818,31.0677966 97.0454545,29.4745763 100.227273,29.4745763 L132.840909,29.4745763 C136.818182,30.2711864 140,33.4576271 140,38.2372881 L140,38.2372881 Z M80.3409091,43.0169492 L80.3409091,10.3559322 L50.1136364,10.3559322 L50.1136364,43.0169492 C50.1136364,47 46.9318182,50.1864407 42.9545455,50.1864407 L9.54545455,50.1864407 L9.54545455,100.372881 L49.3181818,100.372881 L49.3181818,80.4576271 C49.3181818,76.4745763 51.7045455,70.8983051 54.8863636,67.7118644 L80.3409091,43.0169492 L80.3409091,43.0169492 Z M16.7045455,40.6271186 L39.7727273,40.6271186 L39.7727273,17.5254237 L16.7045455,40.6271186 L16.7045455,40.6271186 Z M130.454545,40.6271186 L100.227273,40.6271186 L100.227273,73.2881356 C100.227273,77.2711864 97.0454545,80.4576271 93.0681818,80.4576271 L60.4545455,80.4576271 L60.4545455,130.644068 L130.454545,130.644068 L130.454545,40.6271186 L130.454545,40.6271186 Z M66.8181818,70.1016949 L89.8863636,70.1016949 L89.8863636,47 L66.8181818,70.1016949 L66.8181818,70.1016949 Z" id="Shape" fill="#9DB93B"/></g></svg>