<svg width="86" height="139" viewBox="0 0 86 139" xmlns="http://www.w3.org/2000/svg"><title>Slice 1</title><desc>Created with Sketch.</desc><g id="Page-1" fill="none" fill-rule="evenodd"><path d="M49.7716535,116.725994 L49.7716535,139 L56.5433071,132.198777 L63.3149606,139 L63.3149606,116.725994 C61.0295276,117.661162 58.8287402,118.086239 56.5433071,118.086239 C54.257874,118.086239 51.9724409,117.576147 49.7716535,116.725994 Z M67.8011811,102.188379 C67.8011811,108.479511 62.7224409,113.580428 56.4586614,113.580428 C50.1948819,113.580428 45.1161417,108.479511 45.1161417,102.188379 C45.1161417,95.8972477 50.1948819,90.7963303 56.4586614,90.7963303 C62.7224409,90.7963303 67.8011811,95.8972477 67.8011811,102.188379 Z M63.3149606,31.7957187 L85.9153543,31.7957187 L58.7440945,4.79616347e-14 L58.7440945,27.2899083 C58.7440945,30.0103976 61.0295276,31.7957187 63.3149606,31.7957187 Z M54.257874,27.2899083 L54.257874,0 L9.05708661,0 C4.06299213,0 0,4.08073394 0,9.09663609 L0,113.495413 C0,118.511315 4.06299213,122.592049 9.05708661,122.592049 L45.2007874,122.592049 L45.2007874,113.070336 C42.492126,110.349847 40.7145669,106.269113 40.7145669,102.188379 C40.7145669,93.6018349 47.9940945,86.2905199 56.5433071,86.2905199 C65.0925197,86.2905199 72.3720472,93.6018349 72.3720472,102.188379 C72.3720472,106.69419 70.5944882,110.349847 67.8858268,113.070336 L67.8858268,122.592049 L76.9429134,122.592049 C81.9370079,122.592049 86,118.511315 86,113.495413 L86,36.3015291 L63.3996063,36.3015291 C58.3208661,36.3015291 54.257874,32.2207951 54.257874,27.2899083 Z M13.5433071,18.1932722 L45.2007874,18.1932722 L45.2007874,22.6990826 L13.5433071,22.6990826 L13.5433071,18.1932722 L13.5433071,18.1932722 Z M13.5433071,31.7957187 L45.2007874,31.7957187 L45.2007874,36.3015291 L13.5433071,36.3015291 L13.5433071,31.7957187 L13.5433071,31.7957187 Z M72.3720472,77.1938838 L13.5433071,77.1938838 L13.5433071,72.6880734 L72.2874016,72.6880734 L72.2874016,77.1938838 L72.3720472,77.1938838 Z M72.3720472,63.5914373 L13.5433071,63.5914373 L13.5433071,59.0856269 L72.2874016,59.0856269 L72.2874016,63.5914373 L72.3720472,63.5914373 Z M72.3720472,49.9889908 L13.5433071,49.9889908 L13.5433071,45.4831804 L72.2874016,45.4831804 L72.2874016,49.9889908 L72.3720472,49.9889908 Z" id="Shape" fill="#00B6DE"/></g></svg>