<svg xmlns="http://www.w3.org/2000/svg" viewBox="0 0 612 1056.1" enable-background="new 0 0 612 1056.1"><path fill="#DEDDDD" d="M498.4,1056.1h-10V884.6c0-21.5-17.5-39-39-39h-333c-27,0-49-22-49-49V673.8c0-27,22-49,49-49h333 c21.5,0,39-17.5,39-39V463c0-21.5-17.5-39-39-39h-333c-27,0-49-22-49-49V252.3c0-27,22-49,49-49h333c21.5,0,39-17.5,39-39V0h10 v164.3c0,27-22,49-49,49h-333c-21.5,0-39,17.5-39,39V375c0,21.5,17.5,39,39,39h333c27,0,49,22,49,49v122.8c0,27-22,49-49,49h-333 c-21.5,0-39,17.5-39,39v122.8c0,21.5,17.5,39,39,39h333c27,0,49,22,49,49V1056.1z M72.4,796.6c0,24.3,19.7,44,44,44h333 c24.3,0,44,19.7,44,44c0-24.3-19.7-44-44-44h-333C92.1,840.6,72.4,820.9,72.4,796.6z M72.4,375c0,24.3,19.7,44,44,44h333 c24.3,0,44,19.7,44,44c0-24.3-19.7-44-44-44h-333C92.1,419,72.4,399.3,72.4,375z"/></svg>