<svg id="Layer_1" data-name="Layer 1" xmlns="http://www.w3.org/2000/svg" viewBox="0 0 68.89 71"><defs><style>.cls-1{fill:#f37423;}</style></defs><title>Artboard 1</title><path class="cls-1" d="M34.45,71A35,35,0,0,1,2.81,50.88a4.27,4.27,0,1,1,7.72-3.67,26.44,26.44,0,0,0,47.89,0,4.27,4.27,0,1,1,7.71,3.66A34.9,34.9,0,0,1,35.91,71C35.42,71,34.94,71,34.45,71Z"/><path class="cls-1" d="M64.63,39.4H4.27a4.29,4.29,0,0,1,0-8.57H60a26.45,26.45,0,0,0-49.59-8,4.27,4.27,0,1,1-7.56-4,35,35,0,0,1,66,16.25,4.27,4.27,0,0,1-4.26,4.29Z"/></svg>