<?xml version="1.0" encoding="utf-8"?>
<!-- Generator: Adobe Illustrator 19.2.0, SVG Export Plug-In . SVG Version: 6.00 Build 0)  -->
<svg version="1.1" id="Layer_1" xmlns="http://www.w3.org/2000/svg" xmlns:xlink="http://www.w3.org/1999/xlink" x="0px" y="0px"
	 viewBox="0 0 150 26.8" style="enable-background:new 0 0 150 26.8;" xml:space="preserve">
<style type="text/css">
	.st0{fill:#F07330;}
	.st1{fill:#FFFFFF;}
</style>
<g>
	<g>
		<g>
			<path class="st0" d="M13.1,26.8c-5.1,0-9.8-2.9-12-7.6c-0.4-0.8,0-1.8,0.8-2.2c0.8-0.4,1.8,0,2.2,0.8c1.7,3.6,5.5,5.9,9.5,5.7
				c3.7-0.2,7.1-2.4,8.7-5.7c0.4-0.8,1.3-1.2,2.2-0.8c0.8,0.4,1.2,1.3,0.8,2.2c-2.1,4.5-6.5,7.4-11.4,7.6
				C13.4,26.8,13.2,26.8,13.1,26.8z"/>
		</g>
		<g>
			<path class="st0" d="M24.5,14.9H1.6c-0.9,0-1.6-0.7-1.6-1.6c0-0.9,0.7-1.6,1.6-1.6h21.1c-0.8-4.8-4.9-8.4-9.9-8.4
				c-3.7,0-7.1,2.1-8.9,5.4C3.5,9.4,2.6,9.7,1.8,9.3C1,8.9,0.7,7.9,1.1,7.1C3.4,2.7,7.9,0,12.8,0c7.3,0,13.2,5.9,13.3,13.2
				c0,0.4-0.2,0.8-0.5,1.1C25.3,14.7,24.9,14.9,24.5,14.9z"/>
		</g>
	</g>
	<path class="st1" d="M45.6,19.2h-8.5v-4.7h6c0.8,0,1.5-0.7,1.5-1.5s-0.7-1.5-1.5-1.5h-6V7.5H45c0.8,0,1.5-0.7,1.5-1.5
		S45.8,4.6,45,4.6h-9.3c-0.8,0-1.5,0.7-1.5,1.5v14.6c0,0.8,0.7,1.5,1.5,1.5h9.9c0.8,0,1.5-0.7,1.5-1.5
		C47.1,19.8,46.4,19.2,45.6,19.2z"/>
	<path class="st1" d="M148.5,19.2h-8.5v-4.7h6c0.8,0,1.5-0.7,1.5-1.5s-0.7-1.5-1.5-1.5h-6V7.5h7.9c0.8,0,1.5-0.7,1.5-1.5
		s-0.7-1.5-1.5-1.5h-9.3c-0.8,0-1.5,0.7-1.5,1.5v14.6c0,0.8,0.7,1.5,1.5,1.5h9.9c0.8,0,1.5-0.7,1.5-1.5
		C150,19.8,149.3,19.2,148.5,19.2z"/>
	<path class="st1" d="M118.3,20.1l-1.7-4c0,0,0,0,0,0l-4.5-10.6c0,0,0,0,0,0c0,0,0-0.1,0-0.1c0,0,0,0,0-0.1c0,0,0,0,0-0.1
		c0,0,0,0,0-0.1c0,0,0,0,0-0.1c0,0,0,0,0-0.1c0,0,0,0,0-0.1c0,0,0,0-0.1,0c0,0,0,0-0.1,0c0,0,0,0-0.1,0c0,0,0,0-0.1,0c0,0,0,0-0.1,0
		c0,0,0,0-0.1,0c0,0,0,0-0.1,0c0,0,0,0,0,0c0,0,0,0,0,0c0,0-0.1,0-0.1,0c0,0,0,0-0.1,0c0,0,0,0-0.1,0c-0.1,0-0.2,0-0.3,0
		c0,0,0,0,0,0c0,0,0,0,0,0c-0.1,0-0.2,0-0.3,0c0,0,0,0-0.1,0c0,0,0,0-0.1,0c0,0,0,0-0.1,0c0,0,0,0,0,0c0,0,0,0-0.1,0c0,0,0,0-0.1,0
		c0,0,0,0-0.1,0c0,0,0,0-0.1,0c0,0,0,0-0.1,0c0,0,0,0-0.1,0c0,0,0,0-0.1,0.1c0,0,0,0,0,0c0,0,0,0-0.1,0.1c0,0,0,0,0,0.1
		c0,0,0,0,0,0.1c0,0,0,0,0,0.1c0,0,0,0,0,0.1c0,0,0,0,0,0.1c0,0,0,0.1,0,0.1c0,0,0,0,0,0L104.9,16c0,0,0,0,0,0l-1.7,4
		c-0.3,0.7,0,1.6,0.8,1.9c0.2,0.1,0.4,0.1,0.6,0.1c0.6,0,1.1-0.3,1.3-0.9l1.3-3.1h7l1.3,3.1c0.2,0.6,0.8,0.9,1.3,0.9
		c0.2,0,0.4,0,0.6-0.1C118.2,21.7,118.6,20.8,118.3,20.1z M108.5,15.2l2.3-5.4l2.3,5.4H108.5z"/>
	<g>
		<g>
			<path class="st1" d="M63.6,22.1h-0.4c-0.5,0-0.9-0.2-1.2-0.6L53,9.9v10.7c0,0.8-0.7,1.5-1.5,1.5s-1.5-0.7-1.5-1.5V6
				c0-0.8,0.7-1.5,1.5-1.5h0.3c0.5,0,0.9,0.2,1.2,0.6l9.1,11.7V6c0-0.8,0.7-1.5,1.5-1.5c0.8,0,1.5,0.7,1.5,1.5v14.6
				C65.1,21.4,64.4,22.1,63.6,22.1z"/>
		</g>
	</g>
	<path class="st1" d="M98.7,4.6c-0.8,0-1.5,0.7-1.5,1.5v5.5h-8.3V6c0-0.8-0.7-1.5-1.5-1.5S85.9,5.2,85.9,6v7c0,0,0,0,0,0s0,0,0,0
		v7.6c0,0.8,0.7,1.5,1.5,1.5s1.5-0.7,1.5-1.5v-6.2h8.3v6.2c0,0.8,0.7,1.5,1.5,1.5c0.8,0,1.5-0.7,1.5-1.5V6
		C100.1,5.2,99.5,4.6,98.7,4.6z"/>
	<g>
		<g>
			<path class="st1" d="M127,22.4c-2.2,0-4.5-0.9-6-2.4c-0.6-0.6-0.6-1.5,0-2.1c0.6-0.6,1.5-0.6,2.1,0c1.6,1.6,3.9,1.9,5.4,1.3
				c0.7-0.2,1.5-0.7,1.6-1.7c0.1-0.8-0.3-1.6-2.9-2.7c-0.2-0.1-0.4-0.2-0.6-0.3c-0.1-0.1-0.4-0.2-0.6-0.3c-1.6-0.7-5-2-5-5.2
				c0-1.9,1.2-3.5,3.1-4.3c2.7-1.1,6.1-0.3,8.2,1.8c0.6,0.6,0.6,1.5,0,2.1c-0.6,0.6-1.5,0.6-2.1,0c-1.5-1.5-3.7-1.7-5-1.2
				c-0.8,0.3-1.3,0.9-1.3,1.7c0,1.1,2,2,3.1,2.4c0.3,0.1,0.6,0.2,0.8,0.4c0.1,0.1,0.3,0.1,0.5,0.2c1.6,0.7,5.2,2.2,4.6,5.8
				c-0.3,1.9-1.6,3.3-3.6,4C128.6,22.3,127.8,22.4,127,22.4z"/>
		</g>
	</g>
	<g>
		<g>
			<path class="st1" d="M71.1,22.1c-0.8,0-1.5-0.7-1.5-1.5V6c0-0.8,0.7-1.5,1.5-1.5h6c3.3,0,5.7,2.3,5.7,5.5c0,3.2-2.4,5.5-5.7,5.5
				h-4.5v5.1C72.6,21.4,72,22.1,71.1,22.1z M72.6,12.6h4.5c1.7,0,2.7-1,2.7-2.5c0-1.5-1.1-2.5-2.7-2.5h-4.5V12.6z"/>
		</g>
	</g>
</g>
</svg>
