<?xml version="1.0" encoding="UTF-8"?>
<svg width="2600px" height="10px" viewBox="0 0 2600 10" version="1.1" xmlns="http://www.w3.org/2000/svg" xmlns:xlink="http://www.w3.org/1999/xlink">
    <!-- Generator: Sketch 50.2 (55047) - http://www.bohemiancoding.com/sketch -->
    <title>grid items</title>
    <desc>Created with Sketch.</desc>
    <defs></defs>
    <g id="Grid-work" stroke="none" stroke-width="1" fill="none" fill-rule="evenodd">
        <g id="Desktop-HD-2200-10000" transform="translate(-300.000000, -1346.000000)">
            <g id="grid-items" transform="translate(300.000000, 1346.000000)">
                <rect id="80" fill="#3FA2F7" x="2010" y="0" width="80" height="10"></rect>
                <rect id="80" fill="#3FA2F7" x="1910" y="0" width="80" height="10"></rect>
                <rect id="80" fill="#3FA2F7" x="1810" y="0" width="80" height="10"></rect>
                <rect id="80" fill="#3FA2F7" x="1710" y="0" width="80" height="10"></rect>
                <rect id="80" fill="#3FA2F7" x="1610" y="0" width="80" height="10"></rect>
                <rect id="80" fill="#3FA2F7" x="1510" y="0" width="80" height="10"></rect>
                <rect id="80" fill="#3FA2F7" x="1410" y="0" width="80" height="10"></rect>
                <rect id="80" fill="#3FA2F7" x="1310" y="0" width="80" height="10"></rect>
                <rect id="80" fill="#3FA2F7" x="1210" y="0" width="80" height="10"></rect>
                <rect id="80" fill="#3FA2F7" x="1110" y="0" width="80" height="10"></rect>
                <rect id="80" fill="#3FA2F7" x="1010" y="0" width="80" height="10"></rect>
                <rect id="80" fill="#3FA2F7" x="910" y="0" width="80" height="10"></rect>
                <rect id="80" fill="#3FA2F7" x="810" y="0" width="80" height="10"></rect>
                <rect id="80" fill="#3FA2F7" x="710" y="0" width="80" height="10"></rect>
                <rect id="80" fill="#3FA2F7" x="610" y="0" width="80" height="10"></rect>
                <rect id="80" fill="#3FA2F7" x="510" y="0" width="80" height="10"></rect>
                <rect id="1800" fill="#F37321" x="400" y="0" width="1" height="10"></rect>
                <rect id="1800" fill="#F37321" x="2199" y="0" width="1" height="10"></rect>
                <rect id="2200" fill="#F37321" x="2399" y="0" width="1" height="10"></rect>
                <rect id="2200" fill="#F37321" x="200" y="0" width="1" height="10"></rect>
                <rect id="2600" fill="#F37321" x="2599" y="0" width="1" height="10"></rect>
                <rect id="2600" fill="#F37321" x="0" y="0" width="1" height="10"></rect>
            </g>
        </g>
    </g>
</svg>