<svg width="180" height="136" viewBox="0 0 180 136" xmlns="http://www.w3.org/2000/svg"><title>Slice 1</title><desc>Created with Sketch.</desc><g id="Page-1" fill="none" fill-rule="evenodd"><g id="stadium" fill="#C8CACB"><path d="M172.890282,87.0966667 C168.263323,89.3633333 161.492163,91.5166667 153.423197,93.33 C135.761755,97.3533333 113.416928,99.5066667 90.507837,99.5066667 C67.5987461,99.5066667 45.2539185,97.2966667 27.5924765,93.33 C19.523511,91.5166667 12.7523511,89.3633333 8.12539185,87.0966667 C7.44827586,86.7566667 6.77115987,86.4166667 6.20689655,86.0766667 L9.76175549,119.85 C9.76175549,119.85 14.7836991,132.826667 73.1285266,135.66 L73.1285266,112.086667 C73.1285266,110.953333 74.031348,110.046667 75.1598746,110.046667 L107.943574,110.046667 C109.0721,110.046667 109.974922,110.953333 109.974922,112.086667 L109.974922,135.093333 C132.827586,133.336667 167.981191,129.03 170.633229,118.886667 C171.028213,117.073333 172.326019,102.453333 173.623824,86.7566667 C173.341693,86.87 173.115987,86.9833333 172.890282,87.0966667 L172.890282,87.0966667 L172.890282,87.0966667 Z" id="Shape"/><g id="Group"><path d="M65.0595611,12.5233333 C63.8746082,12.4666667 62.6332288,12.41 61.3918495,12.2966667 L61.3918495,44.71 C62.5768025,44.8233333 63.8181818,44.88 65.0595611,44.9366667 L65.0595611,12.5233333 L65.0595611,12.5233333 Z" id="Shape" transform="translate(3.95 48.733)"/><path d="M98.4639498,12.8633333 C97.2789969,12.92 96.0376176,12.9766667 94.7962382,12.9766667 L94.7962382,45.56 C96.0376176,45.5033333 97.2225705,45.5033333 98.4639498,45.4466667 L98.4639498,12.8633333 L98.4639498,12.8633333 Z" id="Shape" transform="translate(3.95 48.733)"/><path d="M78.4326019,13.0333333 C77.3040752,12.9766667 76.0626959,12.9766667 74.7648903,12.92 L74.7648903,45.39 C75.9498433,45.4466667 77.1912226,45.4466667 78.4326019,45.5033333 L78.4326019,13.0333333 L78.4326019,13.0333333 Z" id="Shape" transform="translate(3.95 48.733)"/><path d="M58.4012539,12.07 C57.2163009,12.0133333 55.9749216,11.9 54.7335423,11.7866667 L54.7335423,44.1433333 C55.9184953,44.2566667 57.1598746,44.37 58.4012539,44.4833333 L58.4012539,12.07 L58.4012539,12.07 Z" id="Shape" transform="translate(3.95 48.733)"/><path d="M91.7492163,13.0333333 C90.5642633,13.09 89.322884,13.09 88.0815047,13.1466667 L88.0815047,45.6166667 C89.322884,45.6166667 90.507837,45.6166667 91.7492163,45.56 L91.7492163,13.0333333 L91.7492163,13.0333333 Z" id="Shape" transform="translate(3.95 48.733)"/><path d="M85.0909091,13.2033333 C84.0752351,13.2033333 82.8338558,13.2033333 81.4231975,13.1466667 L81.4231975,45.6166667 C82.6081505,45.6166667 83.8495298,45.6166667 85.0909091,45.6733333 L85.0909091,13.2033333 L85.0909091,13.2033333 Z" id="Shape" transform="translate(3.95 48.733)"/><path d="M71.7742947,12.8066667 C70.5893417,12.75 69.4043887,12.6933333 68.1065831,12.6366667 L68.1065831,45.1066667 C69.2915361,45.1633333 70.5329154,45.22 71.7742947,45.2766667 L71.7742947,12.8066667 L71.7742947,12.8066667 Z" id="Shape" transform="translate(3.95 48.733)"/><path d="M154.833856,37.91 C156.131661,37.57 157.373041,37.1733333 158.501567,36.8333333 L158.501567,6.23333333 C157.373041,6.51666667 156.188088,6.8 154.833856,7.14 L154.833856,37.91 L154.833856,37.91 Z" id="Shape" transform="translate(3.95 48.733)"/><path d="M38.369906,10.2566667 C37.1285266,10.0866667 35.9435737,9.97333333 34.7021944,9.80333333 L34.7021944,41.5366667 C35.8871473,41.7633333 37.1285266,41.9333333 38.369906,42.16 L38.369906,10.2566667 L38.369906,10.2566667 Z" id="Shape" transform="translate(3.95 48.733)"/><path d="M165.159875,4.08 C164.087774,4.47666667 162.902821,4.93 161.492163,5.32666667 L161.492163,35.8133333 C162.846395,35.3033333 164.087774,34.85 165.159875,34.3966667 L165.159875,4.08 L165.159875,4.08 Z" id="Shape" transform="translate(3.95 48.733)"/><path d="M51.7429467,11.6166667 C50.5579937,11.5033333 49.3166144,11.39 48.0752351,11.2766667 L48.0752351,43.4633333 C49.2601881,43.5766667 50.5015674,43.7466667 51.7429467,43.86 L51.7429467,11.6166667 L51.7429467,11.6166667 Z" id="Shape" transform="translate(3.95 48.733)"/><path d="M28.1003135,40.29 C29.2852665,40.5166667 30.5266458,40.8 31.7680251,41.0266667 L31.7680251,9.46333333 C30.5266458,9.29333333 29.3416928,9.12333333 28.1003135,8.89666667 L28.1003135,40.29 L28.1003135,40.29 Z" id="Shape" transform="translate(3.95 48.733)"/><path d="M45.0846395,10.9933333 C43.8996865,10.88 42.6583072,10.7666667 41.4169279,10.5966667 L41.4169279,42.5566667 C42.6018809,42.7266667 43.8432602,42.8966667 45.0846395,43.0666667 L45.0846395,10.9933333 L45.0846395,10.9933333 Z" id="Shape" transform="translate(3.95 48.733)"/><path d="M111.780564,12.1833333 C110.595611,12.24 109.354232,12.2966667 108.112853,12.41 L108.112853,44.9366667 C109.354232,44.88 110.539185,44.7666667 111.780564,44.71 L111.780564,12.1833333 L111.780564,12.1833333 Z" id="Shape" transform="translate(3.95 48.733)"/><path d="M5.02194357,3.00333333 C3.15987461,2.15333333 1.63636364,1.30333333 0.451410658,0.34 L1.41065831,1.75666667 L1.7492163,30.7133333 C2.36990596,31.3366667 3.44200627,32.13 5.02194357,32.98 L5.02194357,3.00333333 L5.02194357,3.00333333 Z" id="Shape" transform="translate(3.95 48.733)"/><path d="M11.6802508,5.38333333 C10.3824451,4.98666667 9.19749216,4.59 8.01253918,4.19333333 L8.01253918,34.4533333 C9.0846395,34.9066667 10.2695925,35.4166667 11.6802508,35.87 L11.6802508,5.38333333 L11.6802508,5.38333333 Z" id="Shape" transform="translate(3.95 48.733)"/><path d="M25.0532915,8.38666667 C23.8119122,8.16 22.6269592,7.93333333 21.3855799,7.70666667 L21.3855799,38.76 C22.4576803,39.0433333 23.5297806,39.27 24.7147335,39.5533333 C24.8275862,39.5533333 24.9404389,39.61 25.0532915,39.61 L25.0532915,8.38666667 L25.0532915,8.38666667 Z" id="Shape" transform="translate(3.95 48.733)"/><path d="M18.3949843,7.08333333 C17.153605,6.8 15.9122257,6.51666667 14.7272727,6.23333333 L14.7272727,36.9466667 C15.8557994,37.2866667 17.0407524,37.6266667 18.3949843,38.0233333 L18.3949843,7.08333333 L18.3949843,7.08333333 Z" id="Shape" transform="translate(3.95 48.733)"/><path d="M151.84326,7.76333333 C150.714734,7.99 149.473354,8.21666667 148.175549,8.44333333 L148.175549,39.61 C148.231975,39.61 148.288401,39.61 148.344828,39.5533333 C149.586207,39.27 150.714734,38.9866667 151.84326,38.7033333 L151.84326,7.76333333 L151.84326,7.76333333 Z" id="Shape" transform="translate(3.95 48.733)"/><path d="M171.874608,0.113333333 C171.197492,0.85 170.068966,1.75666667 168.206897,2.72 L168.206897,32.9233333 C168.996865,32.47 169.617555,32.0733333 170.125392,31.7333333 C170.746082,24.14 171.366771,16.7166667 171.818182,10.7666667 L171.818182,0.113333333 L171.874608,0.113333333 L171.874608,0.113333333 Z" id="Shape" transform="translate(3.95 48.733)"/><path d="M118.438871,11.7866667 C117.253918,11.8433333 116.012539,11.9566667 114.77116,12.0133333 L114.77116,44.4833333 C116.012539,44.37 117.197492,44.2566667 118.438871,44.1433333 L118.438871,11.7866667 L118.438871,11.7866667 Z" id="Shape" transform="translate(3.95 48.733)"/><path d="M125.153605,11.2766667 C123.968652,11.39 122.783699,11.5033333 121.485893,11.56 L121.485893,43.86 C122.727273,43.7466667 123.912226,43.5766667 125.153605,43.4633333 L125.153605,11.2766667 L125.153605,11.2766667 Z" id="Shape" transform="translate(3.95 48.733)"/><path d="M145.128527,8.89666667 C143.943574,9.06666667 142.758621,9.23666667 141.460815,9.46333333 L141.460815,40.97 C142.702194,40.7433333 143.887147,40.5166667 145.128527,40.2333333 L145.128527,8.89666667 L145.128527,8.89666667 Z" id="Shape" transform="translate(3.95 48.733)"/><path d="M105.122257,12.58 C103.937304,12.6366667 102.695925,12.6933333 101.454545,12.75 L101.454545,45.3333333 C102.695925,45.2766667 103.880878,45.22 105.122257,45.1633333 L105.122257,12.58 L105.122257,12.58 Z" id="Shape" transform="translate(3.95 48.733)"/><path d="M131.811912,10.6533333 C130.626959,10.7666667 129.442006,10.88 128.144201,10.9933333 L128.144201,43.0666667 C129.38558,42.8966667 130.570533,42.7266667 131.811912,42.5566667 L131.811912,10.6533333 L131.811912,10.6533333 Z" id="Shape" transform="translate(3.95 48.733)"/><path d="M138.470219,9.86 C137.285266,10.03 136.100313,10.1433333 134.802508,10.3133333 L134.802508,42.1033333 C136.043887,41.9333333 137.22884,41.7066667 138.470219,41.48 L138.470219,9.86 L138.470219,9.86 Z" id="Shape" transform="translate(3.95 48.733)"/></g><path d="M149.07837,27.71 L149.07837,16.8866667 L160.9279,12.0133333 L146.087774,6.29 L146.087774,10.9933333 L146.087774,27.2 C130.796238,24.9333333 111.38558,23.5733333 90.2821317,23.5166667 L90.2821317,11.05 L102.131661,6.17666667 L87.2915361,0.453333333 L87.2915361,5.15666667 L87.2915361,23.5166667 C64.6645768,23.63 44.0689655,25.33 28.6645768,28.05 L28.6645768,16.83 L40.5141066,11.9566667 L25.6739812,6.23333333 L25.6739812,10.9366667 L25.6739812,28.56 C9.81818182,31.5633333 0.0564263323,35.7 0.0564263323,40.29 C0.0564263323,49.5266667 40.3448276,57.0633333 90,57.0633333 C139.655172,57.0633333 179.943574,49.5266667 179.943574,40.29 C180,35.3033333 167.981191,30.77 149.07837,27.71 L149.07837,27.71 L149.07837,27.71 Z M149.021944,47.77 C132.827586,50.49 111.893417,51.9633333 90.0564263,51.9633333 C68.2194357,51.9633333 47.2852665,50.49 31.0909091,47.77 C14.1630094,44.9366667 8.06896552,41.82 6.09404389,40.4033333 C8.12539185,38.9866667 14.1630094,35.87 31.0909091,33.0366667 C47.2852665,30.3166667 68.2194357,28.8433333 90.0564263,28.8433333 C111.893417,28.8433333 132.827586,30.3166667 149.021944,33.0366667 C165.949843,35.87 172.043887,38.9866667 174.018809,40.4033333 C172.043887,41.82 165.949843,44.9366667 149.021944,47.77 L149.021944,47.77 L149.021944,47.77 Z" id="Shape"/></g></g></svg>