<svg width="230" height="144" viewBox="0 0 230 144" xmlns="http://www.w3.org/2000/svg"><title>Slice 1</title><desc>Created with Sketch.</desc><g id="Page-1" fill="none" fill-rule="evenodd"><path d="M229.227102,17.8367542 C228.408799,17.699284 228.204223,18.4210024 227.658688,17.8367542 C227.863264,16.9431981 227.283633,16.8400955 227.385921,16.0152745 C226.704001,16.0152745 225.885699,16.1183771 225.578835,15.7403341 C225.135588,12.9565633 224.044517,10.8257757 223.498982,8.14510742 C222.476103,8.14510742 221.99876,7.56085918 221.146361,7.35465392 C220.498538,7.93890215 220.021195,8.66062052 219.066508,8.93556088 C218.316397,8.90119331 218.725548,7.69832936 217.770861,7.87016706 C216.747983,10.4133651 214.906801,14.4 216.202448,17.5961814 C215.520528,18.6615752 214.838609,19.726969 214.906801,21.5484487 C213.98621,21.3422434 213.645251,22.1326969 213.099716,21.5484487 C212.826948,22.3389022 212.89514,23.4386635 212.042741,23.6448687 C209.349161,24.1260143 206.314621,25.3632458 203.45056,26.0162291 C202.086722,26.325537 200.620596,26.0849642 199.529526,26.8066826 C198.267975,27.6315036 197.824728,29.4873508 196.938233,30.7589499 C196.324506,31.6181384 195.02886,31.7556086 195.369819,33.1303103 C196.563178,33.5427208 196.358602,34.95179 196.426794,35.7422434 C193.971885,39.3164678 189.403027,37.5637231 185.481992,39.4195704 C185.550184,40.6568019 186.334391,41.172315 186.777639,42.0315036 C183.436235,46.6023866 178.59461,49.6954654 173.241545,52.2730312 C172.423242,51.1732698 169.797854,51.8949881 169.32051,50.4515515 C170.684348,49.1455845 170.411581,45.5713604 172.457338,45.7431981 C172.218666,42.3064439 171.775419,39.1102625 169.593278,37.5980907 C167.88848,37.8042959 168.127152,39.9694511 166.729218,40.4849642 C165.706339,40.6568019 165.979107,39.4883055 165.94501,38.6634845 C168.945455,37.873031 166.933793,33.2334129 167.513425,31.8243437 C166.831505,31.8930787 166.831505,31.274463 166.729218,30.7589499 C163.933349,30.7589499 161.512537,27.5971361 159.944122,30.4840095 C159.705451,31.3431981 160.796522,30.827685 160.728329,31.5494033 C159.841835,31.3431981 159.637259,31.8243437 159.159916,32.0649164 C158.95534,33.6458234 159.875931,34.7455847 158.375709,34.95179 C157.966557,33.6801909 159.466779,32.7178998 158.375709,32.3398568 C155.988992,34.9861575 155.852608,37.7699284 155.511648,42.3064439 C158.409805,45.1245823 157.557406,52.2042959 153.704563,53.3384246 C148.24921,48.3894989 151.317846,38.2167065 152.647588,32.6147971 C151.590614,33.9207637 150.499543,36.5670645 149.272089,36.8076372 C150.158584,34.2644391 151.726997,32.477327 152.408917,29.7279236 C154.625154,30.3121718 155.9208,28.5937947 158.648476,27.9064439 C160.967001,28.2844869 163.012758,27.8720764 164.649364,27.6315036 C163.456006,27.4252984 163.149142,26.325537 163.353718,24.7446301 C161.955784,24.7789976 160.932905,25.8443914 159.705451,25.2601432 L159.705451,23.6792363 C155.9208,24.0916468 153.943235,26.5661098 150.601831,26.0505967 C150.158584,23.9198091 147.192236,23.473031 146.442125,24.4696897 C146.851276,22.7856802 148.215114,22.0295943 149.033417,20.7923628 C146.476221,20.8267303 145.55563,22.5451074 144.362271,23.9541766 C142.589282,24.9508353 140.509429,25.6725537 138.906918,26.8410501 C138.634151,25.8443914 137.372601,26.8410501 137.099833,26.325537 C137.338505,25.7756563 137.88404,25.5350836 137.88404,24.7446301 C136.554298,24.2634845 134.8495,26.8754177 132.940126,25.8100239 C134.8495,24.7446301 135.599611,22.3732697 137.372601,21.1016706 C138.838727,20.0362769 140.986772,20.2424821 142.043746,18.4897375 C140.509429,18.1804296 138.05452,18.3866349 137.099833,17.4243437 C135.770091,18.8334129 133.042414,18.6615752 132.667359,16.9088306 C130.417026,17.5961814 128.541749,14.4 126.427799,16.3933174 C125.336729,15.9809069 124.552522,15.3279236 123.0523,15.3279236 C121.927133,14.5374702 122.984108,11.547494 120.972447,11.6505967 C120.358719,11.925537 121.10883,13.5408115 120.461007,13.7470167 C81.7961949,14.3656325 49.2345585,7.62959427 19.8438455,0 C21.0712999,1.92458234 19.9461334,4.26157518 20.3552848,5.773747 C19.1278305,4.77708832 19.7415577,3.9522673 19.8438455,3.16181384 C18.7868709,2.98997613 19.1960224,4.26157518 18.2754316,4.22720764 C15.5818512,3.78042959 14.1157252,2.09642005 12.0358719,1.06539379 C11.8312962,3.50548926 11.6267205,7.59522675 12.8200789,9.45107398 C12.3768315,9.41670646 12.001776,9.51980907 11.7631043,9.72601434 C11.4903367,10.722673 12.4109275,10.4821002 12.2745436,11.3069213 C11.1834731,11.9942721 10.8084176,13.3346062 12.001776,13.9188544 C11.1493771,13.6782816 11.4562407,14.6062053 10.9448014,14.7093079 C9.13771581,20.6892601 7.02376663,26.325537 3.64826713,30.7245823 C3.71645904,32.2711217 3.3754995,33.4052506 3.13682781,34.6768497 C4.70524174,38.7322196 1.22745436,41.928401 0,44.9183771 C2.93225209,46.8085918 0.204575727,50.2453459 0.511439316,52.7885442 C0.647823138,53.8883055 2.52310063,55.5379473 2.59129254,57.2563248 C2.65948445,58.9403339 2.82996422,59.4558475 3.88693881,60.4181383 C2.52310063,62.6520289 3.85284286,65.5732698 5.4553527,66.4668259 C5.31896891,67.360382 4.26199431,67.360382 4.15970645,68.2883055 C4.26199431,71.7250595 7.56930188,74.4744631 7.80797357,77.4644393 C7.91026143,78.8391406 6.54642325,79.8357994 7.53520595,81.1417659 C12.1040639,81.0042959 12.5814072,84.9909308 15.8546188,86.1250595 C16.0250986,86.9498804 15.3772755,86.9498804 15.8546188,87.4310261 C18.8891588,88.1527448 19.9802293,90.7990454 19.7756536,94.7856803 C22.9806733,95.9541768 27.3449555,95.8854416 30.9591267,96.6071599 C30.9591267,97.1226729 30.2431116,96.9508355 30.4476874,97.6725538 C34.5392019,99.7002387 38.3920448,102.518377 42.1766957,104.752268 C47.0183213,107.639141 52.7805375,108.326492 60.1452635,109.220048 C60.2816476,108.292124 60.2475514,107.22673 60.656703,106.608115 C63.2138996,107.020525 65.7029044,107.467303 68.4646768,107.673508 C70.2717624,109.976134 71.6356003,112.691169 74.4655645,113.962769 C75.9316907,115.543675 75.4543474,117.262053 76.0339786,119.461575 C76.7840896,122.382816 80.4323565,123.070167 82.8190734,124.719809 C84.6943508,123.516945 84.4556793,120.217661 87.2515474,120.011456 C92.7750921,120.664439 95.4686727,124.169929 96.3551672,129.46253 C98.2304451,130.459189 98.7077885,132.864917 100.514874,133.93031 C99.3556115,140.528878 106.754434,142.144153 111.186908,143.106444 C110.368605,139.600955 110.539085,136.164201 110.91414,132.349403 C115.312518,129.32506 120.665583,127.297375 124.211562,123.413842 C127.928021,120.286396 134.440349,122.589022 138.259095,122.623389 C138.122712,121.145585 136.520202,122.589022 136.179242,121.557995 C137.815848,120.045823 139.111494,122.589022 140.611716,122.863962 C140.679908,123.345107 140.304853,123.44821 140.338949,123.929355 C141.25954,124.341766 141.941458,124.926014 143.203009,124.994749 C143.850832,124.513604 144.191792,123.72315 145.282862,123.688783 C146.135261,124.204296 144.635039,124.822912 145.282862,124.994749 C147.362715,124.341766 145.760205,123.001432 147.362715,122.382816 C147.771867,123.620048 151.249654,125.304057 151.522422,123.44821 C150.806407,122.451552 148.624266,122.863962 148.146922,121.62673 C148.965225,120.939379 149.988104,120.698807 149.442568,118.739857 C148.283306,118.636754 148.794745,120.183294 147.362715,119.805251 C148.521978,116.677804 151.249654,117.090215 154.897921,116.918377 C155.40936,116.471599 155.000209,115.096897 155.954896,115.096897 C156.500431,115.543675 157.216446,117.02148 156.227664,117.468258 C160.523754,116.059189 166.797409,114.890692 168.97955,119.049164 C171.298076,118.842959 173.377929,117.880668 173.650696,116.437231 C178.117266,115.956086 177.810403,120.286396 181.45867,120.630071 C183.640811,122.417184 181.151806,127.297375 183.265755,129.015752 C183.913579,128.294033 183.06118,127.263007 183.265755,127.194272 C183.640811,127.228639 184.220442,127.091169 184.32273,127.469213 C184.425018,128.706444 183.333947,128.740811 183.265755,129.840573 C184.629594,131.352745 185.720664,133.139857 186.641255,135.098807 C187.391366,135.305012 187.323174,134.720764 187.936901,134.823866 C188.482436,135.683055 188.755204,136.817184 189.232547,137.71074 C191.516976,137.195227 192.505759,139.704057 193.153582,141.663007 C194.142365,141.353699 195.847163,140.357041 196.529082,140.597613 C196.188122,142.17852 193.562734,142.865871 193.665022,144 C195.472107,142.694033 197.142809,141.216229 197.586056,138.501193 C196.665466,138.088783 197.415577,139.394749 196.80185,139.291647 C198.779415,132.418138 194.994764,127.709785 192.642143,123.551313 C192.642143,123.035799 193.358158,123.207637 193.153582,122.485919 C189.198452,118.911694 185.038745,111.797613 187.425462,104.889738 C187.970997,103.274463 189.743987,102.380907 189.778083,100.696897 C192.267087,99.8720765 192.914911,97.1914082 194.994764,95.9885442 C194.85838,92.5174224 196.733657,91.0739858 199.665909,90.7303101 C199.427238,85.5408113 206.007757,86.53747 206.178237,83.1350834 C205.973661,83.5818617 203.927904,83.9255369 203.586944,83.1350834 C204.678015,83.9942721 205.39403,81.7260142 204.371151,81.3136038 C206.041853,81.7947494 207.848939,81.0386633 208.019418,79.2171837 C207.610267,78.4954654 206.416908,79.8357994 205.939565,78.9422432 C206.860156,79.0109785 207.507979,78.7704059 207.746651,78.1517902 L207.610267,77.7737471 L207.985323,77.9112171 C206.894252,76.2272075 206.007757,74.3026253 205.121262,72.4124104 C204.541631,72.4124104 203.859712,72.3436752 203.484656,72.5498804 C204.507535,71.6906922 202.291298,70.6596661 202.802737,70.0410499 C203.075505,70.0410499 203.109601,70.2472552 203.314177,70.3159904 C203.177793,68.3570408 202.598161,66.8448685 201.234324,66.1231503 C201.950338,66.2949881 201.745763,65.5732698 202.018531,65.3326967 C200.211445,64.1642006 199.938677,59.2840096 201.745763,59.0434366 C200.552404,60.1431979 202.495874,61.4491645 201.234324,62.7207636 C202.393586,62.7207636 201.677571,63.0988067 201.745763,64.5422432 C203.143697,64.6453459 202.836833,66.3980907 203.825616,66.9136038 C204.200672,65.9856803 202.973217,65.3326967 203.552848,65.0921241 C206.280525,66.0544155 203.041409,69.9035799 205.121262,71.3813843 C205.632701,67.9789977 208.053514,64.8171837 206.689676,61.1398566 C204.848495,60.6243436 204.609823,58.5279235 203.552848,57.1875896 C204.268864,58.2186157 205.257646,58.9747018 206.928348,59.0090692 C207.030636,59.6276848 206.451005,59.5933175 206.65558,60.3150357 C208.59905,58.4591887 210.167464,55.0224343 209.246873,51.138902 C208.940009,50.4859189 208.25809,51.6887829 207.951227,50.863962 C208.496762,50.7952268 208.462666,50.1422432 209.008201,50.0735085 L208.871817,49.3517902 L209.246873,48.7331741 C211.088054,44.9871122 216.441119,44.7809069 219.646139,42.4439141 C219.987098,41.6534606 219.509755,41.1379475 220.703113,40.8630071 C220.839497,41.7221957 220.634922,42.1689738 220.191674,42.4439141 C221.385032,41.7909308 221.930568,40.5193317 223.567174,40.347494 C223.533078,38.9727923 223.158022,37.9417661 221.760088,37.9761337 C221.896472,38.8009546 223.08983,38.5603819 223.055735,39.5570406 C220.805401,41.5847255 220.328058,37.1169451 218.62326,37.7355609 C218.79374,35.4329355 218.486877,32.2367542 219.680235,28.8 C221.146361,29.0405728 222.101048,27.4596659 223.328502,26.7035799 C223.533078,25.8100239 223.055735,24.2291169 223.328502,24.0916468 C223.635366,24.4696897 224.419572,24.4009546 224.385477,25.1570406 C223.771749,25.5694511 223.43079,25.5694511 223.874037,26.4630071 C225.169683,26.1536993 224.590052,24.3322196 225.442451,23.5761337 C225.374259,24.2634845 225.340164,24.8821002 226.226658,24.6415274 C226.704001,23.094988 225.919794,23.9198091 225.715219,23.0606205 C227.795072,23.8167065 231.647915,19.7957041 229.227102,17.8367542 L229.227102,17.8367542 L229.227102,17.8367542 Z" id="Shape" fill="#C8CACB"/></g></svg>