<?xml version="1.0" encoding="UTF-8" standalone="no"?>
<svg width="123px" height="160px" viewBox="0 0 123 160" version="1.1" xmlns="http://www.w3.org/2000/svg" xmlns:xlink="http://www.w3.org/1999/xlink" xmlns:sketch="http://www.bohemiancoding.com/sketch/ns">
    <!-- Generator: Sketch 3.3.2 (12043) - http://www.bohemiancoding.com/sketch -->
    <title>Slice 1</title>
    <desc>Created with Sketch.</desc>
    <defs></defs>
    <g id="Page-1" stroke="none" stroke-width="1" fill="none" fill-rule="evenodd" sketch:type="MSPage">
        <g id="commercial_micro_260x160" sketch:type="MSLayerGroup" fill="#F37321">
            <path d="M103.573333,159.146667 L19.4133333,159.146667 C9.06666667,159.146667 0.533333333,150.72 0.533333333,140.266667 L0.533333333,19.7333333 C0.533333333,9.38666667 8.96,0.853333333 19.4133333,0.853333333 L57.1733333,0.853333333 L57.1733333,24.32 C57.6,24.96 59.4133333,25.8133333 60.5866667,25.8133333 C61.76,25.8133333 63.4666667,24.8533333 64,24.32 L64,0.853333333 L103.68,0.853333333 C114.026667,0.853333333 122.56,9.28 122.56,19.7333333 L122.56,140.266667 C122.453333,150.72 113.92,159.146667 103.573333,159.146667 L103.573333,159.146667 Z M19.4133333,9.38666667 C13.76,9.38666667 9.06666667,13.9733333 9.06666667,19.7333333 L9.06666667,140.266667 C9.06666667,145.92 13.6533333,150.613333 19.4133333,150.613333 L103.573333,150.613333 C109.226667,150.613333 113.92,146.026667 113.92,140.266667 L113.92,19.7333333 C113.92,14.08 109.333333,9.38666667 103.573333,9.38666667 L72.4266667,9.38666667 L72.4266667,24.64 C72.4266667,30.6133333 65.3866667,34.4533333 60.48,34.4533333 C55.5733333,34.4533333 48.5333333,30.6133333 48.5333333,24.64 L48.5333333,9.38666667 L19.4133333,9.38666667 L19.4133333,9.38666667 Z" id="Shape" sketch:type="MSShapeGroup"></path>
        </g>
    </g>
</svg>