<?xml version="1.0" encoding="UTF-8" standalone="no"?>
<svg width="95px" height="159px" viewBox="0 0 95 159" version="1.1" xmlns="http://www.w3.org/2000/svg" xmlns:xlink="http://www.w3.org/1999/xlink" xmlns:sketch="http://www.bohemiancoding.com/sketch/ns">
    <!-- Generator: Sketch 3.3.2 (12043) - http://www.bohemiancoding.com/sketch -->
    <title>Slice 1</title>
    <desc>Created with Sketch.</desc>
    <defs></defs>
    <g id="Page-1" stroke="none" stroke-width="1" fill="none" fill-rule="evenodd" sketch:type="MSPage">
        <g id="commercial_string_260x160" sketch:type="MSLayerGroup" fill="#939598">
            <path d="M47.3,147.2 C43,147.2 39.5,143.7 39.5,139.4 C39.5,135.1 43,131.6 47.3,131.6 C51.6,131.6 55.1,135.1 55.1,139.4 C55.1,143.7 51.6,147.2 47.3,147.2 L47.3,147.2 Z M47.3,136.9 C45.9,136.9 44.7,138.1 44.7,139.5 C44.7,140.9 45.9,142.1 47.3,142.1 C48.7,142.1 49.9,140.9 49.9,139.5 C49.9,138 48.7,136.9 47.3,136.9 L47.3,136.9 Z" id="Shape" sketch:type="MSShapeGroup"></path>
            <path d="M60.4,93.7 L34.6,93.7 C29.6,93.7 25.5,89.6 25.5,84.6 L25.5,43.4 C25.5,38.4 29.6,34.3 34.6,34.3 L60.4,34.3 C65.4,34.3 69.5,38.4 69.5,43.4 L69.5,84.6 C69.5,89.6 65.4,93.7 60.4,93.7 L60.4,93.7 Z M34.6,42.2 C34,42.2 33.5,42.7 33.5,43.3 L33.5,84.5 C33.5,85.1 34,85.6 34.6,85.6 L60.4,85.6 C61,85.6 61.5,85.1 61.5,84.5 L61.5,43.3 C61.5,42.7 61,42.2 60.4,42.2 L34.6,42.2 L34.6,42.2 Z" id="Shape" sketch:type="MSShapeGroup"></path>
            <path d="M78.2,0.1 L16.6,0.1 C7.6,0.1 0.3,7.4 0.3,16.4 L0.3,114.8 C0.3,123.8 7.6,131.1 16.6,131.1 L25.4,131.1 L25.4,149.4 C25.4,154.4 29.5,158.5 34.5,158.5 L60.3,158.5 C65.3,158.5 69.4,154.4 69.4,149.4 L69.4,131 L78.2,131 C87.2,131 94.5,123.7 94.5,114.7 L94.5,16.3 C94.5,7.4 87.2,0.1 78.2,0.1 L78.2,0.1 Z M61.5,149.3 C61.5,149.9 61,150.4 60.4,150.4 L34.6,150.4 C34,150.4 33.5,149.9 33.5,149.3 L33.5,131 L61.6,131 L61.6,149.3 L61.5,149.3 Z M86.5,114.8 C86.5,119.4 82.8,123.1 78.2,123.1 L16.6,123.1 C12,123.1 8.3,119.4 8.3,114.8 L8.3,16.4 C8.3,11.8 12,8.1 16.6,8.1 L78.2,8.1 C82.8,8.1 86.5,11.8 86.5,16.4 L86.5,114.8 L86.5,114.8 Z" id="Shape" sketch:type="MSShapeGroup"></path>
        </g>
    </g>
</svg>