<svg id="artwork" xmlns="http://www.w3.org/2000/svg" viewBox="0 0 200 200"><defs><style>.cls-1{fill:#f37321;}</style></defs><title>enphase-icon-calendar-orange</title><circle class="cls-1" cx="53.57" cy="80.58" r="11.03"/><circle class="cls-1" cx="85.19" cy="80.58" r="11.03"/><circle class="cls-1" cx="114.81" cy="80.58" r="11.03"/><circle class="cls-1" cx="146.43" cy="80.58" r="11.03"/><circle class="cls-1" cx="53.57" cy="112.67" r="11.03"/><circle class="cls-1" cx="85.19" cy="112.67" r="11.03"/><circle class="cls-1" cx="114.81" cy="112.67" r="11.03"/><circle class="cls-1" cx="146.43" cy="112.67" r="11.03"/><circle class="cls-1" cx="53.57" cy="144.76" r="11.03"/><circle class="cls-1" cx="85.19" cy="144.76" r="11.03"/><path class="cls-1" d="M158.51,27.72H138.85V16.42a5.42,5.42,0,1,0-10.83,0v11.3H72V16.42a5.42,5.42,0,1,0-10.83,0v11.3H41.49A22.13,22.13,0,0,0,19.36,49.85v117A22.13,22.13,0,0,0,41.49,189h117a22.13,22.13,0,0,0,22.13-22.13v-117A22.13,22.13,0,0,0,158.51,27.72Zm11.3,139.15h0a11.32,11.32,0,0,1-11.3,11.3h-117a11.32,11.32,0,0,1-11.3-11.3v-117a11.31,11.31,0,0,1,11.3-11.29H61.15v11.3a5.42,5.42,0,1,0,10.83,0V38.55h56v11.3a5.42,5.42,0,1,0,10.83,0V38.55h19.66a11.31,11.31,0,0,1,11.3,11.3Z"/></svg>