<svg version="1.1" xmlns="http://www.w3.org/2000/svg" xmlns:xlink="http://www.w3.org/1999/xlink" x="0px" y="0px"
	 width="50px" height="50px" viewBox="0 0 50 50" xml:space="preserve">
	<g fill="#f4c900">
		<path d="M43.3,11.7c-0.1,0-0.1-0.1-0.2-0.1c-0.6-0.4-1.2-0.6-1.8-0.8L40,12.1l-1.2-1.3c0,0,0,0,0,0c-0.6,0.1-1.2,0.4-1.8,0.7
			c-0.1,0-0.3,0.1-0.4,0.2c-0.8,0.4-1.6,0.5-2.4,0.3c-2.8-0.9-5.3-5.1-6.1-6.6c-0.2-0.4-0.5-0.7-0.9-0.9l-0.5-0.2
			c-0.4-0.1-0.8,0-1.2,0.2c-1,0.5-1.4,1.7-0.9,2.7c0.1,0.2,0.6,1.1,1.3,2.2l0.5,0.7c1.5,2.2,3.8,4.8,6.7,5.7
			c0.6,0.2,1.2,0.3,1.7,0.3v10.5c0,0.5,0.1,1.1,0.3,1.5c0,0.1,0,0.2,0,0.3l0,19.2c0,1.3,1.1,2.4,2.4,2.4c1.3,0,2.4-1.1,2.4-2.4
			l0-16.4c0.1,0,0.2,0,0.3,0c0,0,0,0,0.1,0v16.4c0,1.3,1.1,2.4,2.4,2.4h0c1.3,0,2.4-1.1,2.4-2.4V28.8c0.1,0.1,0.3,0.2,0.4,0.3
			c0.3,0.2,0.6,0.2,1,0.2c0.7,0,1.4-0.4,1.8-1C53.5,18,45.8,13.3,43.3,11.7L43.3,11.7z M40,22.3L40,22.3l-1.3-1.7l1.2-8.3h0l1.2,8.3
			L40,22.3z M45.2,24.6v-5.7C46,20.3,46.2,22.1,45.2,24.6L45.2,24.6z M45.2,24.6"/>
		<path d="M45.1,5.3c0,2.8-2.3,5.2-5.2,5.2c-2.8,0-5.2-2.3-5.2-5.2c0-2.8,2.3-5.2,5.2-5.2C42.8,0.2,45.1,2.5,45.1,5.3L45.1,5.3z
			 M45.1,5.3"/>
		<path d="M28.6,29H3.3c-1.6,0-2.9-1.3-2.9-2.9V2.9C0.4,1.3,1.7,0,3.3,0h25.2c1.6,0,2.9,1.3,2.9,2.9v23.1C31.5,27.7,30.2,29,28.6,29
			L28.6,29z M3.3,1.9c-0.5,0-1,0.4-1,1v23.1c0,0.5,0.4,1,1,1h25.2c0.5,0,1-0.4,1-1V2.9c0-0.5-0.4-1-1-1H3.3z M3.3,1.9"/>
		<path d="M12.1,35.9c0,2.3-1.8,4.1-4.1,4.1c-2.3,0-4.1-1.8-4.1-4.1c0-2.3,1.8-4.1,4.1-4.1C10.3,31.8,12.1,33.7,12.1,35.9L12.1,35.9z
			 M12.1,35.9"/>
		<path d="M3.3,49.3c-0.1-1.1,0.1-2,0.6-2.8v2.8H8L7,48l1-6.6h0L9,48l-1,1.3h4.1v-2.8c0.4,0.8,0.7,1.7,0.5,2.8h3.2
			c0.4-4.9-3.6-7.4-5.2-8.3c-0.1,0-0.1-0.1-0.2-0.1c-0.5-0.3-1-0.5-1.5-0.7l-1,1l-1-1c0,0,0,0,0,0c-0.5,0.1-1,0.4-1.5,0.7
			c-0.1,0-0.1,0.1-0.2,0.1c-1.6,1-5.6,3.4-5.2,8.3H3.3z M3.3,49.3"/>
		<path d="M28,35.9c0,2.3-1.8,4.1-4.1,4.1c-2.3,0-4.1-1.8-4.1-4.1c0-2.3,1.8-4.1,4.1-4.1C26.2,31.8,28,33.7,28,35.9L28,35.9z
			 M28,35.9"/>
		<path d="M19.2,49.3c-0.1-1.1,0.1-2,0.6-2.8v2.8h4.1l-1-1.3l1-6.6h0l1,6.6l-1,1.3h4.1v-2.8c0.4,0.8,0.7,1.7,0.5,2.8h3.2
			c0.4-4.9-3.6-7.4-5.2-8.3c-0.1,0-0.1-0.1-0.2-0.1c-0.5-0.3-1-0.5-1.5-0.7l-1,1l-1-1c0,0,0,0,0,0c-0.5,0.1-1.1,0.4-1.5,0.7
			c-0.1,0-0.1,0.1-0.2,0.1c-1.6,1-5.6,3.4-5.2,8.3H19.2z M19.2,49.3"/>
		<path d="M23,15.4l-0.8-0.3c0.1-0.6,0-1.2-0.1-1.8l0.8-0.4c0.5-0.2,0.7-0.8,0.5-1.3l-0.5-1
			c-0.2-0.5-0.8-0.7-1.3-0.5l-0.8,0.4c-0.4-0.5-0.8-0.9-1.3-1.2l0.3-0.8C20,8,19.7,7.5,19.2,7.3l-1-0.4c-0.5-0.2-1.1,0.1-1.3,0.6
			l-0.3,0.8c-0.6-0.1-1.2,0-1.8,0.1l-0.4-0.8c-0.2-0.5-0.8-0.7-1.3-0.5l-1,0.5c-0.5,0.2-0.7,0.8-0.5,1.3l0.4,0.8
			c-0.5,0.4-0.9,0.8-1.2,1.3L10,10.7c-0.5-0.2-1.1,0.1-1.3,0.6l-0.4,1c-0.1,0.2-0.1,0.5,0,0.7c0.1,0.2,0.3,0.4,0.6,0.5l0.8,0.3
			c-0.1,0.6,0,1.2,0.1,1.8L9.1,16c-0.5,0.2-0.7,0.8-0.5,1.3l0.5,1c0.2,0.5,0.8,0.7,1.3,0.5l0.8-0.4c0.4,0.5,0.8,0.9,1.3,1.2l-0.3,0.8
			c-0.1,0.2-0.1,0.5,0,0.7c0.1,0.2,0.3,0.4,0.6,0.5l1,0.4c0.2,0.1,0.5,0.1,0.7,0c0.2-0.1,0.4-0.3,0.5-0.6l0.3-0.8
			c0.6,0.1,1.2,0,1.8-0.1l0.4,0.8c0.2,0.5,0.8,0.7,1.3,0.5l1-0.5c0.5-0.2,0.7-0.8,0.5-1.3l-0.4-0.8c0.5-0.4,0.9-0.8,1.2-1.3l0.8,0.3
			c0.2,0.1,0.5,0.1,0.7,0c0.2-0.1,0.4-0.3,0.5-0.6l0.4-1C23.7,16.2,23.5,15.6,23,15.4L23,15.4z M17.6,18c-0.5,0.2-1.1,0.4-1.6,0.4
			c-1.5,0-2.9-0.9-3.5-2.3c-0.9-1.9,0-4.2,1.9-5.1c0.5-0.2,1.1-0.4,1.6-0.4c1.5,0,2.9,0.9,3.5,2.3C20.4,14.8,19.5,17.1,17.6,18
			L17.6,18z M17.6,18"/>
	</g>
</svg>
