<svg version="1.1" xmlns="http://www.w3.org/2000/svg" xmlns:xlink="http://www.w3.org/1999/xlink" x="0px" y="0px"
   width="50px" height="50px" viewBox="0 0 50 50" xml:space="preserve">
  <g fill="#9db93b">
    <path d="M14.7,34.7h20.6c1.9,0-1.6-8.4-1.6-8.4c-0.2-0.5-0.7-0.8-1.2-1l-3.3-1.5l-1.6-1.3L25.1,25h0l1.1,7.3c0,0,0,0.1,0,0.1l-1.1,1.6c0,0,0,0-0.1,0s-0.1,0-0.1,0l-1.1-1.6c0,0,0,0,0-0.1l1.1-7.3h0l-2.5-2.5l-1.6,1.3l-3.3,1.5c-0.5,0.2-1,0.5-1.2,1C16.3,26.3,12.8,34.7,14.7,34.7L14.7,34.7z M14.7,34.7"/>
    <path d="M25,23.1c2.5,0,5.8-3.1,5.9-8.3c0-3.6-1.7-5.8-5.9-5.8c-4.2,0-5.9,2.2-5.9,5.8C19.2,20,22.1,23.1,25,23.1L25,23.1zM23.8,16.3c3,0.3,5.7-3.9,5.6-0.1c0,2.3-2.1,5.7-4.5,5.7c-2.4,0-4.1-2.9-4.5-5.7C20.2,13.1,25.9,13.8,23.8,16.3L23.8,16.3zM23.8,16.3"/>
    <path d="M47.7,3.4H2.3C1,3.4,0,4.4,0,5.7v32.4c0,1.3,1,2.3,2.3,2.3h45.4c1.3,0,2.3-1,2.3-2.3V5.7C50,4.4,49,3.4,47.7,3.4L47.7,3.4zM46.6,37H3.4V6.8h43.1V37z M46.6,37"/>
    <path d="M0,44c0,0.7,0.6,1.3,1.3,1.3h12.2v-2.5H1.3C0.6,42.8,0,43.3,0,44L0,44z M0,44"/>
    <path d="M48.7,42.8H18.3v2.5h30.4c0.7,0,1.3-0.6,1.3-1.3C50,43.3,49.4,42.8,48.7,42.8L48.7,42.8z M48.7,42.8"/>
    <path d="M15.9,41.4c-0.8,0-1.5,0.7-1.5,1.5v2.1c0,0.8,0.7,1.5,1.5,1.5c0.8,0,1.5-0.7,1.5-1.5V43C17.4,42.1,16.7,41.4,15.9,41.4L15.9,41.4z M15.9,41.4"/>
  </g>
</svg>
