<svg id="Layer_1" data-name="Layer 1" xmlns="http://www.w3.org/2000/svg" xmlns:xlink="http://www.w3.org/1999/xlink" viewBox="0 0 70 42"><defs><style>.cls-1{fill:none;}.cls-2{clip-path:url(#clip-path);}.cls-3{fill:#fff;}.cls-4{fill:#005293;}.cls-5{fill:#d21034;}</style><clipPath id="clip-path"><path id="SVGID" class="cls-1" d="M70,36.08A6,6,0,0,1,64,42H6a6,6,0,0,1-6-5.92V5.92A6,6,0,0,1,6,0H64a6,6,0,0,1,6,5.92Z"/></clipPath></defs><title>enphase-region-flag-20</title><g class="cls-2"><rect id="_5" data-name="5" class="cls-3" y="-2.33" width="70" height="46.67"/><rect id="_4" data-name="4" class="cls-4" y="21" width="35" height="23.33"/><rect id="_3" data-name="3" class="cls-5" x="35" y="-2.33" width="35" height="23.33"/><polygon id="_2" data-name="2" class="cls-4" points="11.95 9.53 15.38 12.02 14.07 16.05 17.5 13.56 20.93 16.05 19.62 12.02 23.05 9.53 18.81 9.53 17.5 5.5 16.19 9.53 11.95 9.53"/><polygon id="_1" data-name="1" class="cls-5" points="46.95 28.86 50.38 31.36 49.07 35.39 52.5 32.9 55.93 35.39 54.62 31.36 58.05 28.86 53.81 28.86 52.5 24.83 51.19 28.86 46.95 28.86"/></g></svg>