<svg id="Layer_1" data-name="Layer 1" xmlns="http://www.w3.org/2000/svg" xmlns:xlink="http://www.w3.org/1999/xlink" viewBox="0 0 70 42"><defs><style>.cls-1{fill:none;}.cls-2{clip-path:url(#clip-path);}.cls-3{fill:#f93;}.cls-4{fill:#fff;}.cls-5{fill:#128807;}.cls-6{fill:#008;}</style><clipPath id="clip-path"><path class="cls-1" d="M70,36.08A6,6,0,0,1,64,42H6a6,6,0,0,1-6-5.92V5.92A6,6,0,0,1,6,0H64a6,6,0,0,1,6,5.92Z"/></clipPath></defs><title>enphase-region-flag-19</title><g class="cls-2"><rect class="cls-3" x="-0.64" y="-0.63" width="71.3" height="43.25"/><rect class="cls-4" x="-0.64" y="13.69" width="71.3" height="14.62"/><rect class="cls-5" x="-0.64" y="28.31" width="71.3" height="14.32"/><path class="cls-6" d="M35,15.15A5.85,5.85,0,1,0,40.86,21,5.85,5.85,0,0,0,35,15.15Zm3.31,9.75a.25.25,0,0,0-.35,0,.26.26,0,0,0-.05.35,4.85,4.85,0,0,1-.71.42.26.26,0,0,0-.34-.14.26.26,0,0,0-.13.33,4.92,4.92,0,0,1-.8.21.26.26,0,0,0-.51.07l-.41,0-.41,0a.26.26,0,0,0-.51-.07,5.27,5.27,0,0,1-.8-.21.25.25,0,0,0-.13-.33.26.26,0,0,0-.34.14,5.31,5.31,0,0,1-.72-.42.25.25,0,0,0,0-.35.26.26,0,0,0-.36,0,5.33,5.33,0,0,1-.59-.58.26.26,0,0,0-.31-.41,6.16,6.16,0,0,1-.41-.72.25.25,0,0,0,.13-.33.25.25,0,0,0-.33-.14,5,5,0,0,1-.21-.8.26.26,0,0,0,.21-.29.26.26,0,0,0-.28-.22c0-.14,0-.27,0-.41s0-.28,0-.42a.26.26,0,0,0,.28-.22.26.26,0,0,0-.21-.29,4.88,4.88,0,0,1,.21-.8.26.26,0,0,0,.2-.48,6,6,0,0,1,.41-.72.25.25,0,0,0,.36,0,.24.24,0,0,0,0-.35,4.56,4.56,0,0,1,.59-.59.26.26,0,0,0,.36,0,.25.25,0,0,0,0-.35,5.29,5.29,0,0,1,.72-.41.26.26,0,0,0,.34.13.25.25,0,0,0,.13-.33,6.08,6.08,0,0,1,.8-.22.26.26,0,0,0,.51-.06l.41,0,.41,0a.26.26,0,0,0,.51.06,5.61,5.61,0,0,1,.8.22.25.25,0,0,0,.47.19,4.84,4.84,0,0,1,.71.41.26.26,0,0,0,.41.31,4.27,4.27,0,0,1,.58.59.25.25,0,0,0,0,.35.25.25,0,0,0,.35,0,5.21,5.21,0,0,1,.42.72.26.26,0,0,0,.19.48,4,4,0,0,1,.22.8.26.26,0,0,0-.22.29.26.26,0,0,0,.28.22c0,.13,0,.27,0,.42s0,.27,0,.41a.26.26,0,0,0-.07.51,4.1,4.1,0,0,1-.22.8.26.26,0,0,0-.33.14.26.26,0,0,0,.14.33,5.3,5.3,0,0,1-.42.72.25.25,0,0,0-.35,0,.27.27,0,0,0,0,.36A4.94,4.94,0,0,1,38.33,24.9Z"/><path class="cls-6" d="M35.07,22l.16,0,.15,1,1,2.92-.62-3-.38-1,.15-.07.41,1,1.69,2.57-1.39-2.74-.62-.83a.68.68,0,0,0,.14-.1l.64.81,2.29,2-2-2.29-.82-.64a.63.63,0,0,0,.1-.13l.83.62,2.75,1.38-2.58-1.69-.94-.4c0-.05,0-.1.05-.15l1,.38,3,.63-2.92-1-1-.15a1.09,1.09,0,0,0,0-.16l1,.12L40.13,21l-3.07-.18-1,.12a1.2,1.2,0,0,0,0-.16l1-.15,2.92-1-3,.62-1,.39-.05-.15.94-.4,2.58-1.69L36.7,19.82l-.83.62a.58.58,0,0,0-.1-.13l.82-.64,2-2.29-2.29,2-.64.81a.61.61,0,0,0-.14-.1l.62-.83,1.39-2.75-1.69,2.57-.41,1L35.33,20l.38-1,.62-3-1,2.92-.15,1-.16,0,.13-1L35,15.88l-.17,3.06L35,20l-.16,0-.14-1-1-2.92.62,3,.38,1-.15.06-.41-1-1.68-2.57,1.38,2.75.61.83-.13.1-.63-.81-2.29-2,2,2.29.82.64-.1.13-.83-.62-2.75-1.38,2.58,1.69.94.4-.06.15-1-.39-3-.62,2.93,1,1,.15a.8.8,0,0,0,0,.16l-1-.12L29.9,21l3.07.17,1-.12a.73.73,0,0,0,0,.16l-1,.15-2.93,1,3-.63,1-.38.06.15-.94.4-2.58,1.69,2.75-1.38.83-.62.1.13-.82.64-2,2.29,2.29-2,.63-.81.13.1-.61.83-1.38,2.74,1.68-2.57.41-1,.15.07-.38,1-.62,3,1-2.92.14-1L35,22l-.12,1L35,26.12,35.19,23Z"/></g></svg>