<svg id="Layer_1" data-name="Layer 1" xmlns="http://www.w3.org/2000/svg" xmlns:xlink="http://www.w3.org/1999/xlink" viewBox="0 0 70 42"><defs><style>.cls-1{fill:none;}.cls-2{clip-path:url(#clip-path);}.cls-3{fill:red;}.cls-4{fill:#f5f7fa;}.cls-5{fill:#1673d8;}.cls-6{fill:#fff;}</style><clipPath id="clip-path"><path class="cls-1" d="M70,36.08A6,6,0,0,1,64,42H6a6,6,0,0,1-6-5.92V5.92A6,6,0,0,1,6,0H64a6,6,0,0,1,6,5.92Z"/></clipPath></defs><title>enphase-region-flag-11</title><g class="cls-2"><rect class="cls-3" x="-0.05" y="-0.03" width="70.1" height="42.06"/><rect class="cls-4" x="-0.01" y="9.07" width="70" height="8"/><rect class="cls-4" x="-0.01" y="26.07" width="70" height="8"/><rect class="cls-5" x="-0.01" width="26.07" height="26.07"/><polygon class="cls-6" points="21.03 14.07 20.37 12.05 19.7 14.07 17.54 14.07 19.29 15.34 18.62 17.36 20.37 16.11 22.11 17.36 21.45 15.34 23.19 14.07 21.03 14.07"/><polygon class="cls-6" points="21.03 4.67 20.37 2.65 19.7 4.67 17.54 4.67 19.29 5.93 18.62 7.96 20.37 6.7 22.11 7.96 21.45 5.93 23.19 4.67 21.03 4.67"/><polygon class="cls-6" points="6.14 14.07 5.48 12.05 4.81 14.07 2.65 14.07 4.4 15.34 3.73 17.36 5.48 16.11 7.22 17.36 6.56 15.34 8.3 14.07 6.14 14.07"/><polygon class="cls-6" points="6.14 4.67 5.48 2.65 4.81 4.67 2.65 4.67 4.4 5.93 3.73 7.96 5.48 6.7 7.22 7.96 6.56 5.93 8.3 4.67 6.14 4.67"/><polygon class="cls-6" points="14.02 19.36 13.36 17.33 12.69 19.36 10.53 19.36 12.28 20.62 11.61 22.64 13.36 21.39 15.1 22.64 14.44 20.62 16.18 19.36 14.02 19.36"/><polygon class="cls-6" points="14.02 9.95 13.36 7.93 12.69 9.95 10.53 9.95 12.28 11.21 11.61 13.24 13.36 11.98 15.1 13.24 14.44 11.21 16.18 9.95 14.02 9.95"/></g></svg>