<svg id="Layer_1" data-name="Layer 1" xmlns="http://www.w3.org/2000/svg" xmlns:xlink="http://www.w3.org/1999/xlink" viewBox="0 0 70 42"><defs><style>.cls-1{fill:none;}.cls-2{clip-path:url(#clip-path);}.cls-3{fill:#00008b;}.cls-4{fill:#fff;}.cls-5{fill:red;}</style><clipPath id="clip-path"><path class="cls-1" d="M70,36.08A6,6,0,0,1,64,42H6a6,6,0,0,1-6-5.92V5.92A6,6,0,0,1,6,0H64a6,6,0,0,1,6,5.92Z"/></clipPath></defs><title>enphase-region-flag-9</title><g class="cls-2"><rect class="cls-3" x="-0.01" y="-0.01" width="70.02" height="42.03"/><g id="Commonwealth_Star" data-name="Commonwealth Star"><polygon id="Star7" class="cls-4" points="17.71 20.99 18.74 24.15 21.87 22.98 20.01 25.74 22.89 27.43 19.55 27.71 20.01 30.99 17.71 28.59 15.41 30.99 15.86 27.71 12.53 27.43 15.41 25.74 13.55 22.98 16.68 24.15 17.71 20.99"/></g><g id="Star_Alpha_Crucis" data-name="Star Alpha Crucis"><polygon id="Star7-2" data-name="Star7" class="cls-4" points="53.14 26.67 53.63 28.17 55.12 27.61 54.23 28.93 55.61 29.73 54.02 29.87 54.24 31.43 53.14 30.29 52.04 31.43 52.26 29.87 50.67 29.73 52.04 28.93 51.17 27.61 52.65 28.17 53.14 26.67"/></g><g id="Star_Beta_Crucis" data-name="Star Beta Crucis"><polygon id="Star7-3" data-name="Star7" class="cls-4" points="44.28 12.8 44.77 14.3 46.26 13.74 45.38 15.06 46.75 15.86 45.16 16 45.38 17.56 44.28 16.42 43.18 17.56 43.41 16 41.82 15.86 43.19 15.06 42.3 13.74 43.8 14.3 44.28 12.8"/></g><g id="Star_Gamma_Crucis" data-name="Star Gamma Crucis"><polygon id="Star7-4" data-name="Star7" class="cls-4" points="53.14 3.31 53.63 4.81 55.12 4.25 54.23 5.57 55.61 6.37 54.02 6.51 54.24 8.07 53.14 6.93 52.04 8.07 52.26 6.51 50.67 6.37 52.04 5.57 51.17 4.25 52.65 4.81 53.14 3.31"/></g><g id="Star_Delta_Crucis" data-name="Star Delta Crucis"><polygon id="Star7-5" data-name="Star7" class="cls-4" points="61.02 10.46 61.5 11.96 62.99 11.41 62.11 12.72 63.48 13.52 61.9 13.66 62.11 15.22 61.02 14.08 59.91 15.22 60.13 13.66 58.55 13.52 59.92 12.72 59.04 11.41 60.53 11.96 61.02 10.46"/></g><g id="Star_Epsilon_Crucis" data-name="Star Epsilon Crucis"><polygon id="Star5" class="cls-4" points="56.69 17.49 57.07 18.43 58.09 18.51 57.31 19.15 57.55 20.14 56.69 19.6 55.81 20.14 56.06 19.15 55.28 18.51 56.3 18.43 56.69 17.49"/></g><polygon class="cls-4" points="35.42 0 31.46 0 20.66 5.34 20.66 0 14.76 0 14.76 5.34 3.95 0 -0.01 0 -0.01 1.96 7.84 5.84 -0.01 5.84 -0.01 11.68 7.84 11.68 -0.01 15.56 -0.01 17.52 3.95 17.52 14.76 12.18 14.76 17.52 20.66 17.52 20.66 12.18 31.46 17.52 35.42 17.52 35.42 15.56 27.57 11.68 35.42 11.68 35.42 5.84 27.57 5.84 35.42 1.96 35.42 0"/><path id="Red_Cross" data-name="Red Cross" class="cls-5" d="M15.94,0h3.54V7H35.42v3.5H19.48v7H15.94v-7H0V7H15.94Z"/><path id="Red_Diagonals" data-name="Red Diagonals" class="cls-5" d="M0,0,11.8,5.84H9.16L0,1.31ZM35.42,0H32.79L21,5.84h2.64Z"/><g id="Red_Diagonals_Rotated" data-name="Red Diagonals Rotated"><path id="Red_Diagonals-2" data-name="Red Diagonals" class="cls-5" d="M35.42,17.52,23.61,11.68h2.64l9.17,4.53ZM0,17.52H2.63l11.81-5.84H11.8Z"/></g></g></svg>