<svg id="Layer_1" data-name="Layer 1" xmlns="http://www.w3.org/2000/svg" xmlns:xlink="http://www.w3.org/1999/xlink" viewBox="0 0 70 42"><defs><style>.cls-1{fill:none;}.cls-2{clip-path:url(#clip-path);}.cls-3{fill:red;}.cls-4{fill:#fff;}</style><clipPath id="clip-path"><path class="cls-1" d="M70,36.08A6,6,0,0,1,64,42H6a6,6,0,0,1-6-5.92V5.92A6,6,0,0,1,6,0H64a6,6,0,0,1,6,5.92Z"/></clipPath></defs><title>enphase-region-flag-10</title><g class="cls-2"><rect class="cls-3" x="-0.05" y="-0.03" width="70.1" height="42.06"/><rect class="cls-4" x="21.9" y="-0.03" width="26.2" height="42.06"/><path class="cls-3" d="M35,12.08l-1.74,3.22c-.2.35-.55.32-.91.12l-1.26-.65L32,19.73c.2.9-.44.9-.75.51l-2.2-2.44L28.71,19a.43.43,0,0,1-.49.29l-2.79-.58.73,2.63c.16.59.28.83-.16,1l-1,.46,4.8,3.86a.62.62,0,0,1,.22.65l-.42,1.37c1.65-.19,3.14-.47,4.79-.65.14,0,.39.22.39.39l-.22,5h.81l-.13-5c0-.17.22-.42.37-.4,1.66.18,3.14.46,4.79.65L40,27.34a.62.62,0,0,1,.22-.65L45,22.84l-1-.46c-.44-.16-.32-.4-.16-1l.73-2.63-2.79.58a.43.43,0,0,1-.5-.29l-.36-1.24-2.21,2.44c-.32.39-1,.39-.75-.51l.94-4.95-1.27.65c-.35.2-.71.23-.91-.12Z"/></g></svg>