<svg id="Layer_1" data-name="Layer 1" xmlns="http://www.w3.org/2000/svg" viewBox="0 0 36.06 38"><defs><style>.cls-1{fill:#fff;}</style></defs><title>Artboard 1</title><path class="cls-1" d="M18,37.5A18.3,18.3,0,0,1,1.47,27a2.23,2.23,0,0,1,4-1.91,13.87,13.87,0,0,0,25.07,0,2.23,2.23,0,0,1,4,1.91A18.28,18.28,0,0,1,18.8,37.48Z"/><path class="cls-1" d="M33.83,21H2.23a2.23,2.23,0,1,1,0-4.47H31.41a13.86,13.86,0,0,0-26-4.16,2.23,2.23,0,1,1-4-2.07,18.33,18.33,0,0,1,34.57,8.47A2.23,2.23,0,0,1,33.83,21Z"/></svg>