<?xml version="1.0" encoding="UTF-8" standalone="no"?>
<svg width="125px" height="127px" viewBox="0 0 125 127" version="1.1" xmlns="http://www.w3.org/2000/svg" xmlns:xlink="http://www.w3.org/1999/xlink" xmlns:sketch="http://www.bohemiancoding.com/sketch/ns">
    <!-- Generator: Sketch 3.2.2 (9983) - http://www.bohemiancoding.com/sketch -->
    <title>Slice 1</title>
    <desc>Created with Sketch.</desc>
    <defs></defs>
    <g id="Page-1" stroke="none" stroke-width="1" fill="none" fill-rule="evenodd" sketch:type="MSPage">
        <path d="M59.6212897,105.576768 C64.6110542,118.105724 76.8082566,127 91.0951894,127 C109.817468,127 125,111.777104 125,93.0050505 C125,74.2329966 109.817468,59.010101 91.0951894,59.010101 C85.4230638,59.010101 80.0921187,60.4212121 75.4008871,62.8585859 C72.0317298,64.6117845 68.9611054,66.9636364 66.4022518,69.7003367 C60.7301262,75.7723906 57.2330263,83.9397306 57.2330263,92.9622896 L57.2330263,93.6892256 C57.3183214,97.9225589 58.128625,101.899327 59.6212897,105.576768 L59.6212897,105.576768 L59.6212897,105.576768 Z M97.4070283,97.7515152 C96.0423064,96.0838384 93.6966905,95.3569024 91.6069601,94.886532 C89.0054589,94.2878788 86.6598431,93.6892256 84.2715797,92.3636364 C82.778915,91.5084175 81.5847834,90.3111111 80.7318321,88.8144781 C79.9215285,87.3178451 79.4950529,85.6074074 79.4950529,83.7259259 C79.4950529,80.3478114 80.6891846,77.6111111 83.077448,75.5158249 C84.4848175,74.2757576 86.4039577,73.4205387 88.5789833,73.0356902 L88.5789833,71.1969697 C88.5789833,69.9569024 89.6025247,68.9734007 90.7966564,68.9734007 L92.0334357,68.9734007 C93.2702149,68.9734007 94.2511088,69.9996633 94.2511088,71.1969697 L94.2511088,73.0356902 C96.2555442,73.4205387 98.0467417,74.2329966 99.4114637,75.3447811 C100.861481,76.5420875 101.885022,78.0387205 102.524736,79.8346801 C102.993859,81.1602694 102.140908,82.5713805 100.733538,82.7851852 L99.5394063,82.956229 C98.4732173,83.1272727 97.4496759,82.4858586 97.1084954,81.459596 C96.8099625,80.647138 96.4261344,79.920202 95.9570113,79.4070707 C94.8908222,78.2097643 93.1849198,77.5255892 91.3510747,77.5255892 C89.3892869,77.5255892 87.5127943,78.2952862 86.3186626,79.6208754 C85.3804162,80.689899 84.9112931,81.9299663 84.9112931,83.3838384 C84.9112931,84.8377104 85.2951211,86.0350168 86.1054248,86.9757576 C87.7686796,88.9427609 90.4554759,89.4986532 93.0569771,90.0545455 C94.5922893,90.3538721 96.1702491,90.6959596 97.534971,91.2946128 C98.9849881,91.9360269 100.17912,92.7484848 101.117366,93.6892256 C102.055612,94.6299663 102.780621,95.7417508 103.292392,97.0245791 C103.804162,98.3074074 104.060048,99.7185185 104.060048,101.172391 C104.060048,104.422222 102.993859,107.201684 100.946776,109.382492 C99.2408734,111.178451 96.8952576,112.375758 94.2511088,112.846128 L94.2511088,114.214478 C94.2511088,115.454545 93.2275674,116.438047 92.0334357,116.438047 L90.7966564,116.438047 C89.5598772,116.438047 88.5789833,115.411785 88.5789833,114.214478 L88.5789833,112.803367 C87.0863187,112.50404 85.6789492,112.03367 84.4421699,111.392256 C82.9495053,110.622559 81.6700785,109.382492 80.5612419,107.672054 C79.8362334,106.560269 79.3244626,105.23468 79.0259297,103.738047 C78.7700444,102.49798 79.580348,101.300673 80.8171273,101.086869 L82.011259,100.873064 C83.1627431,100.659259 84.2715797,101.386195 84.5701126,102.540741 C84.9112931,103.86633 85.3804162,104.935354 85.9348345,105.66229 C87.2142613,107.329966 89.3466394,108.313468 91.6069601,108.313468 C91.9907881,108.313468 92.3746162,108.270707 92.7584442,108.227946 C94.3790515,107.97138 95.8290686,107.201684 96.85261,106.047138 C97.918799,104.807071 98.4732173,103.310438 98.4732173,101.471717 C98.5158649,99.9323232 98.1746844,98.6922559 97.4070283,97.7515152 Z M53.2241556,72.3087542 L53.2241556,59.1383838 L66.4022518,59.1383838 L66.4022518,64.1841751 C69.1316957,61.8323232 72.1596725,59.9080808 75.4008871,58.4114478 L75.4008871,4.7037037 C75.4008871,2.0952862 73.3111566,0 70.7096554,0 L4.69123166,0 C2.08973047,0 1.42108547e-14,2.0952862 1.42108547e-14,4.7037037 L1.42108547e-14,100.873064 C1.42108547e-14,103.481481 2.08973047,105.576768 4.69123166,105.576768 L55.313886,105.576768 C53.9065165,101.557239 53.181508,97.3239057 53.181508,93.0050505 C53.181508,92.3636364 53.181508,91.7222222 53.2241556,91.0808081 L53.2241556,72.3087542 L53.2241556,72.3087542 Z M66.4022518,50.8855219 L53.2241556,50.8855219 L53.2241556,37.6723906 L66.4022518,37.6723906 L66.4022518,50.8855219 L66.4022518,50.8855219 Z M22.1767315,93.7319865 L8.99863528,93.7319865 L8.99863528,80.5188552 L22.1767315,80.5188552 L22.1767315,93.7319865 L22.1767315,93.7319865 Z M22.1767315,72.3087542 L8.99863528,72.3087542 L8.99863528,59.0956229 L22.1767315,59.0956229 L22.1767315,72.3087542 L22.1767315,72.3087542 Z M22.1767315,50.8855219 L8.99863528,50.8855219 L8.99863528,37.6723906 L22.1767315,37.6723906 L22.1767315,50.8855219 L22.1767315,50.8855219 Z M44.2681679,93.7319865 L31.0900716,93.7319865 L31.0900716,80.5188552 L44.2681679,80.5188552 L44.2681679,93.7319865 L44.2681679,93.7319865 Z M44.2681679,72.3087542 L31.0900716,72.3087542 L31.0900716,59.0956229 L44.2681679,59.0956229 L44.2681679,72.3087542 L44.2681679,72.3087542 Z M44.2681679,50.8855219 L31.0900716,50.8855219 L31.0900716,37.6723906 L44.2681679,37.6723906 L44.2681679,50.8855219 L44.2681679,50.8855219 Z M8.99863528,26.8111111 L8.99863528,9.74949495 L66.4022518,9.74949495 L66.4022518,26.8111111 L8.99863528,26.8111111 L8.99863528,26.8111111 Z" id="Shape" fill="#9EB93C" sketch:type="MSShapeGroup"></path>
    </g>
</svg>