<svg id="Layer_2" data-name="Layer 2" xmlns="http://www.w3.org/2000/svg" viewBox="0 0 2200 30"><defs><style>.cls-1{opacity:0.2;}.cls-2{fill:#387c96;}.cls-3{fill:#ff4f00;}</style></defs><title>grid</title><g class="cls-1"><polyline class="cls-2" points="629 0 689 0 689 30 629 30"/><polyline class="cls-2" points="709 0 769 0 769 30 709 30"/><polyline class="cls-2" points="789 0 849 0 849 30 789 30"/><polyline class="cls-2" points="869 0 929 0 929 30 869 30"/><polyline class="cls-2" points="949 0 1009 0 1009 30 949 30"/><polyline class="cls-2" points="1029 0 1089 0 1089 30 1029 30"/><polyline class="cls-2" points="1109 0 1169 0 1169 30 1109 30"/><polyline class="cls-3" points="1098 0 1100 0 1100 30 1098 30"/><polyline class="cls-2" points="1189 0 1249 0 1249 30 1189 30"/><polyline class="cls-2" points="1269 0 1329 0 1329 30 1269 30"/><polyline class="cls-2" points="1349 0 1409 0 1409 30 1349 30"/><polyline class="cls-2" points="1429 0 1489 0 1489 30 1429 30"/><polyline class="cls-2" points="1509 0 1569 0 1569 30 1509 30"/><rect class="cls-3" x="1818" width="2" height="30"/><rect class="cls-3" x="1697" width="2" height="30"/><rect class="cls-3" x="1998" width="2" height="30"/><polyline class="cls-3" points="200 0 202 0 202 30 200 30"/><polyline class="cls-3" points="0 0 2 0 2 30 0 30"/><rect class="cls-3" x="2198" width="2" height="30"/><polyline class="cls-3" points="380 0 382 0 382 30 380 30"/><rect class="cls-3" x="499" width="2" height="30"/></g></svg>