<svg id="Layer_1" data-name="Layer 1" xmlns="http://www.w3.org/2000/svg" xmlns:xlink="http://www.w3.org/1999/xlink" width="70" height="42" viewBox="0 0 70 42"><defs><style>.cls-1{fill:none;}.cls-2{clip-path:url(#clip-path);}.cls-3{fill:red;}.cls-4{fill:#fff;}</style><clipPath id="clip-path"><path class="cls-1" d="M70,36.08A6,6,0,0,1,64,42H6a6,6,0,0,1-6-5.92V5.92A6,6,0,0,1,6,0H64a6,6,0,0,1,6,5.92V36.08Z"/></clipPath></defs><title>enphase-region-flag</title><g class="cls-2"><rect class="cls-3" width="70" height="42"/><polygon class="cls-4" points="48.46 17.11 39.04 17.11 39.04 7.8 30.97 7.8 30.97 17.11 21.54 17.11 21.54 25.11 30.97 25.11 30.97 34.42 39.04 34.42 39.04 25.11 48.46 25.11 48.46 17.11"/></g></svg>