<svg id="Layer_1" data-name="Layer 1" xmlns="http://www.w3.org/2000/svg" xmlns:xlink="http://www.w3.org/1999/xlink" width="70" height="42" viewBox="0 0 70 42"><defs><style>.cls-1{fill:none;}.cls-2{clip-path:url(#clip-path);}.cls-3{fill:#009b3a;}.cls-4{fill:#fed100;}</style><clipPath id="clip-path"><path class="cls-1" d="M70,36.08A6,6,0,0,1,64,42H6a6,6,0,0,1-6-5.92V5.92A6,6,0,0,1,6,0H64a6,6,0,0,1,6,5.92V36.08Z"/></clipPath></defs><title>enphase-region-flag</title><g class="cls-2"><rect class="cls-3" y="-0.03" width="70.1" height="42.06"/><polygon points="0 0.31 0 41.69 35.05 21 0 0.31"/><polygon points="70.1 41.69 70.1 0.31 35.05 21 70.1 41.69"/><polygon class="cls-4" points="35.05 17.82 4.8 -0.03 0 -0.03 0 3.49 29.67 21 0 38.51 0 42.03 4.8 42.03 35.05 24.18 65.3 42.03 70.1 42.03 70.1 38.51 40.42 21 70.1 3.49 70.1 -0.03 65.3 -0.03 35.05 17.82"/></g></svg>