<svg id="Layer_1" data-name="Layer 1" xmlns="http://www.w3.org/2000/svg" xmlns:xlink="http://www.w3.org/1999/xlink" width="70" height="42" viewBox="0 0 70 42"><defs><style>.cls-1{fill:none;}.cls-2{clip-path:url(#clip-path);}.cls-3{fill:red;}.cls-4{fill:#fff;}</style><clipPath id="clip-path"><path class="cls-1" d="M70,36.08A6,6,0,0,1,64,42H6a6,6,0,0,1-6-5.92V5.92A6,6,0,0,1,6,0H64a6,6,0,0,1,6,5.92V36.08Z"/></clipPath></defs><title>enphase-region-flag</title><g class="cls-2"><rect class="cls-3" x="-0.05" y="-0.03" width="70.1" height="42.06"/><rect class="cls-4" x="21.9" y="-0.03" width="26.2" height="42.06"/><path class="cls-3" d="M35,12.08l-1.74,3.22a0.6,0.6,0,0,1-.91.12l-1.26-.65L32,19.73c0.2,0.9-.44.9-0.75,0.51l-2.2-2.44L28.71,19a0.43,0.43,0,0,1-.49.29l-2.79-.58,0.73,2.63c0.16,0.59.28,0.83-.16,1l-1,.46,4.8,3.86a0.62,0.62,0,0,1,.22.65L29.6,28.71c1.65-.19,3.14-0.47,4.79-0.65a0.48,0.48,0,0,1,.39.39l-0.22,5h0.81l-0.13-5a0.47,0.47,0,0,1,.37-0.4c1.66,0.18,3.14.46,4.79,0.65L40,27.34a0.62,0.62,0,0,1,.22-0.65L45,22.84l-1-.46c-0.44-.16-0.32-0.4-0.16-1l0.73-2.63-2.79.58a0.43,0.43,0,0,1-.5-0.29L40.94,17.8l-2.21,2.44c-0.32.39-1,.39-0.75-0.51l0.94-4.95-1.27.65a0.6,0.6,0,0,1-.91-0.12Z"/></g></svg>