<svg id="Layer_1" data-name="Layer 1" xmlns="http://www.w3.org/2000/svg" xmlns:xlink="http://www.w3.org/1999/xlink" width="70" height="42" viewBox="0 0 70 42"><defs><style>.cls-1{fill:none;}.cls-2{clip-path:url(#clip-path);}.cls-3{fill:#00247d;}.cls-4{fill:#fff;}.cls-5{fill:#cf142b;}</style><clipPath id="clip-path"><path class="cls-1" d="M70,36.08A6,6,0,0,1,64,42H6a6,6,0,0,1-6-5.92V5.92A6,6,0,0,1,6,0H64a6,6,0,0,1,6,5.92V36.08Z"/></clipPath></defs><title>enphase-region-flag</title><g class="cls-2"><rect class="cls-3" x="-0.06" width="70.12" height="42.07"/><polygon class="cls-4" points="34.81 25.78 67.77 42.08 70.06 42.08 70.06 33.74 44.39 21.04 70.06 8.34 70.06 0 67.77 0 34.81 16.3 1.85 0 -0.06 0 -0.06 8.53 25.25 21.04 -0.06 33.56 -0.06 42.08 1.86 42.08 34.81 25.78"/><polygon class="cls-5" points="34.81 21.04 -0.06 38.29 -0.06 41.45 34.81 24.19 34.81 21.04"/><polygon class="cls-5" points="34.81 21.04 -0.06 3.79 -0.06 6.95 28.43 21.04 34.81 21.04"/><polygon class="cls-5" points="34.81 21.04 70.06 38.47 70.06 35.32 41.19 21.04 34.81 21.04"/><polygon class="cls-5" points="34.81 21.04 70.06 3.61 70.06 0.45 34.81 17.88 34.81 21.04"/><polygon class="cls-4" points="70.06 28.1 70.06 13.98 41.95 13.98 41.95 0 27.68 0 27.68 13.98 -0.06 13.98 -0.06 28.1 27.68 28.1 27.68 42.08 41.95 42.08 41.95 28.1 70.06 28.1"/><polygon class="cls-5" points="70.06 25.27 70.06 16.81 39.1 16.81 39.1 0 30.53 0 30.53 16.81 -0.06 16.81 -0.06 25.27 30.53 25.27 30.53 42.08 39.1 42.08 39.1 25.27 70.06 25.27"/></g></svg>