<svg id="Layer_1" data-name="Layer 1" xmlns="http://www.w3.org/2000/svg" xmlns:xlink="http://www.w3.org/1999/xlink" width="70" height="42" viewBox="0 0 70 42"><defs><style>.cls-1{fill:none;}.cls-2{clip-path:url(#clip-path);}.cls-3{fill:#cf142b;}.cls-4{fill:#fff;}.cls-5{fill:#0039a6;}</style><clipPath id="clip-path"><path class="cls-1" d="M70,36.08A6,6,0,0,1,64,42H6a6,6,0,0,1-6-5.92V5.92A6,6,0,0,1,6,0H64a6,6,0,0,1,6,5.92V36.08Z"/></clipPath></defs><title>enphase-region-flag</title><g class="cls-2"><rect class="cls-3" x="0.14" width="70" height="42"/><rect class="cls-4" x="0.14" y="8.37" width="70" height="8.42"/><rect class="cls-4" x="0.14" y="25.21" width="70" height="8.42"/><polygon class="cls-5" points="0.14 0.13 0.14 41.87 36.69 21 0.14 0.13"/><path id="star" class="cls-4" d="M12.12,14.69l-1.43,4.36H6.05l3.75,2.7L8.37,26.11l3.75-2.7,3.75,2.7-1.43-4.36,3.75-2.7H13.56Z"/></g></svg>