<svg id="Layer_1" data-name="Layer 1" xmlns="http://www.w3.org/2000/svg" xmlns:xlink="http://www.w3.org/1999/xlink" width="70" height="42" viewBox="0 0 70 42"><defs><style>.cls-1{fill:none;}.cls-2{clip-path:url(#clip-path);}.cls-3{fill:#d52b1e;}.cls-4{fill:#fff;}.cls-5{fill:#0039a6;}</style><clipPath id="clip-path"><path class="cls-1" d="M70,36.08A6,6,0,0,1,64,42H6a6,6,0,0,1-6-5.92V5.92A6,6,0,0,1,6,0H64a6,6,0,0,1,6,5.92V36.08Z"/></clipPath></defs><title>enphase-region-flag</title><g class="cls-2"><rect class="cls-3" width="70" height="42"/><polygon class="cls-4" points="70 21.07 70 0 0 0 0 6.63 1.32 21.07 70 21.07"/><rect class="cls-5" width="20.97" height="21.07"/><polygon class="cls-4" points="12.13 11.02 15.31 8.74 11.38 8.74 10.17 5.04 8.96 8.74 5.03 8.74 8.21 11.02 7 14.71 10.17 12.43 13.35 14.71 12.13 11.02"/></g></svg>