<svg id="Layer_1" data-name="Layer 1" xmlns="http://www.w3.org/2000/svg" xmlns:xlink="http://www.w3.org/1999/xlink" width="70" height="42" viewBox="0 0 70 42"><defs><style>.cls-1{fill:none;}.cls-2{clip-path:url(#clip-path);}.cls-3{fill:#00247d;}.cls-4{fill:#cc142b;}.cls-5{fill:#fff;}.cls-6{fill:#cf142b;}</style><clipPath id="clip-path"><path class="cls-1" d="M70,36.08A6,6,0,0,1,64,42H6a6,6,0,0,1-6-5.92V5.92A6,6,0,0,1,6,0H64a6,6,0,0,1,6,5.92V36.08Z"/></clipPath></defs><title>enphase-region-flag</title><g class="cls-2"><rect class="cls-3" x="0.03" y="0.02" width="69.94" height="41.95"/><polygon class="cls-4" points="52.44 11.22 51.81 13.11 53.45 11.94 55.08 13.11 54.46 11.22 56.09 10.04 54.07 10.04 53.45 8.15 52.83 10.04 50.8 10.04 52.44 11.22"/><polygon class="cls-4" points="61.27 17.13 62.72 16.08 60.92 16.08 60.37 14.39 59.81 16.08 58.02 16.08 59.47 17.13 58.91 18.82 60.37 17.77 61.82 18.82 61.27 17.13"/><polygon class="cls-4" points="46 18.07 45.38 16.18 44.76 18.07 42.73 18.07 44.37 19.25 43.74 21.15 45.38 19.98 47.01 21.15 46.39 19.25 48.02 18.07 46 18.07"/><polygon class="cls-4" points="54.14 30.68 53.45 28.57 52.76 30.68 50.51 30.68 52.33 31.99 51.63 34.1 53.45 32.8 55.26 34.1 54.57 31.99 56.38 30.68 54.14 30.68"/><polygon class="cls-4" points="52.78 11.1 52.37 12.36 53.45 11.59 54.53 12.36 54.12 11.1 55.2 10.33 53.86 10.33 53.45 9.08 53.03 10.33 51.7 10.33 52.78 11.1"/><polygon class="cls-4" points="60.92 17.02 61.82 16.37 60.71 16.37 60.37 15.32 60.03 16.37 58.91 16.37 59.81 17.02 59.47 18.06 60.37 17.42 61.27 18.06 60.92 17.02"/><polygon class="cls-4" points="45.79 18.36 45.38 17.11 44.97 18.36 43.63 18.36 44.71 19.14 44.3 20.4 45.38 19.62 46.46 20.4 46.04 19.14 47.12 18.36 45.79 18.36"/><polygon class="cls-4" points="53.93 30.97 53.45 29.51 52.96 30.97 51.41 30.97 52.67 31.87 52.19 33.34 53.45 32.44 54.71 33.34 54.23 31.87 55.48 30.97 53.93 30.97"/><polygon class="cls-5" points="18.19 11.02 32.29 18 36.36 18 36.36 18 36.36 15.99 22.25 9.01 36.36 2.04 36.36 0.02 32.29 0.02 18.19 7 4.09 0.02 0.03 0.02 0.03 2.04 14.13 9.01 0.03 15.99 0.03 18 4.09 18 18.19 11.02"/><polygon class="cls-6" points="2.73 18 18.19 10.36 18.19 9.01 0.03 18 2.73 18"/><polygon class="cls-6" points="0.03 1.37 15.48 9.01 18.19 9.01 0.03 0.02 0.03 1.37"/><polygon class="cls-6" points="36.36 16.66 20.9 9.01 18.19 9.01 36.36 18 36.36 18 36.36 16.66"/><polygon class="cls-6" points="33.65 0.02 18.19 7.68 18.19 9.01 36.36 0.02 33.65 0.02"/><polygon class="cls-5" points="21.22 0.02 15.17 0.02 15.17 6.02 0.03 6.02 0.03 12 15.17 12 15.17 18 21.22 18 21.22 12 36.36 12 36.36 6.02 21.22 6.02 21.22 0.02"/><polygon class="cls-6" points="16.37 18 20.01 18 20.01 10.81 36.36 10.81 36.36 7.22 20.01 7.22 20.01 0.02 16.37 0.02 16.37 7.22 0.03 7.22 0.03 10.81 16.37 10.81 16.37 18"/></g></svg>