<svg xmlns="http://www.w3.org/2000/svg" width="50" height="50" viewBox="0 0 50 50"><g><g enable-background="new"><path d="M22.3,30.6c0-1.7,0.3-3,0.8-3.8c0.5-0.8,1.5-1.8,3-2.9c0.9-0.7,1.6-1.5,2.1-2.3 c0.5-0.8,0.8-1.8,0.8-2.8c0-1.1-0.3-2-0.9-2.7c-0.6-0.6-1.5-1-2.6-1c-0.9,0-1.7,0.3-2.3,0.8c-0.6,0.5-1,1.3-1,2.4h-5.3l0-0.1 c0-2.4,0.7-4.2,2.4-5.5c1.6-1.3,3.7-1.9,6.3-1.9c2.8,0,5,0.7,6.5,2.1c1.6,1.4,2.4,3.3,2.4,5.7c0,1.6-0.5,3-1.4,4.4 s-2.1,2.5-3.5,3.4c-0.8,0.6-1.3,1.2-1.5,1.8s-0.4,1.4-0.4,2.4L22.3,30.6L22.3,30.6z M27.7,38.3h-5.5v-4.7h5.5L27.7,38.3L27.7,38.3 z" fill="#05B5DC"/></g><g><path d="M43.6,6.4v37.2H6.4V6.4H43.6 M46,4H4v42h42V4L46,4z" fill="#05B5DC"/></g></g></svg>