<svg width="65" height="65" viewBox="0 0 65 65" xmlns="http://www.w3.org/2000/svg"><title>Slice 1</title><desc>Created with Sketch.</desc><g id="Page-1" fill="none" fill-rule="evenodd"><g id="support_solar_pro_gray_45x45(2)"><g id="Layer_2"><path d="M44.416,31.961 C44.082,31.448 43.377,32.861 43.062,33.413 C43.062,33.362 43.066,31.829 43.066,31.779 C43.066,21.722 34.938,13.569 24.545,13.569 C14.152,13.569 5.728,21.722 5.728,31.779 C5.728,32.203 5.748,32.622 5.778,33.038 C5.227,31.866 4.599,31.12 4.049,31.961 C2.707,34.018 2.333,41.016 8.478,46.302 C9.123,48.273 10.277,53.552 12.976,56.952 C15.307,59.89 18.788,63.439 24.09,63.439 L24.378,63.439 C29.724,63.439 33.218,59.852 35.549,56.882 C38.207,53.494 39.349,48.259 39.989,46.301 C46.134,41.016 45.76,34.018 44.416,31.961 L44.416,31.961 Z" id="Shape" fill="#D1D2D4" transform="translate(8)"/><g id="Group"><g id="Shape"><path d="M25.169,29.418 C18.463,29.418 1.852,28.327 1.685,28.316 L1.107,28.278 L1.107,23.685 L2.626,23.685 C3.15,17.867 5.996,12.432 10.503,8.67 L11.363,5.614 L19.675,2.832 L19.706,3.169 C19.704,2.783 19.705,2.501 19.71,2.395 L19.736,1.918 L20.203,1.822 C21.702,1.516 23.21,1.36 24.687,1.36 C26.036,1.36 27.394,1.485 28.722,1.731 C29.12,1.807 29.226,1.827 29.253,3.186 L29.287,2.689 L37.415,5.531 L38.258,8.191 C43.12,11.971 46.183,17.581 46.73,23.684 L48.031,23.684 L48.031,28.274 L47.457,28.315 C47.302,28.326 31.89,29.413 25.205,29.417 L25.169,29.418 L25.169,29.418 Z" fill="#FBED1F" transform="translate(8)"/><path d="M24.688,1.98 C26.026,1.98 27.338,2.105 28.61,2.34 C28.684,2.354 28.604,8.23 28.68,8.245 C28.745,8.258 29.464,8.248 29.531,8.261 L29.849,3.542 L36.919,6.014 L37.728,8.564 C42.539,12.236 45.752,17.887 46.158,24.304 L47.413,24.304 L47.413,27.7 C47.413,27.7 31.945,28.796 25.205,28.801 L25.169,28.801 C18.406,28.8 1.725,27.7 1.725,27.7 L1.725,24.304 L3.198,24.304 C3.587,18.15 6.56,12.701 11.046,9.024 L11.87,6.097 L19.132,3.666 C19.132,3.666 19.436,6.949 19.538,8.184 C19.545,8.189 19.563,8.192 19.589,8.192 C19.752,8.192 20.238,8.097 20.409,8.04 C20.383,7.527 20.302,2.929 20.328,2.429 C21.725,2.144 23.206,1.98 24.688,1.98 L24.688,1.98 Z M24.688,0.744 C23.169,0.744 21.619,0.904 20.08,1.218 L19.145,1.41 L19.094,2.363 C19.094,2.367 19.094,2.372 19.093,2.376 L18.739,2.495 L11.477,4.926 L10.857,5.134 L10.68,5.762 L9.96,8.32 C5.558,12.059 2.728,17.363 2.068,23.068 L1.725,23.068 L0.489,23.068 L0.489,24.304 L0.489,27.7 L0.489,28.857 L1.643,28.933 C2.326,28.978 18.442,30.036 25.168,30.036 C31.911,30.032 46.866,28.977 47.499,28.932 L48.648,28.85 L48.648,27.7 L48.648,24.304 L48.648,23.068 L47.412,23.068 L47.288,23.068 C46.6,17.076 43.551,11.59 38.789,7.824 L38.098,5.64 L37.911,5.051 L37.328,4.847 L30.258,2.375 L29.827,2.225 C29.742,1.659 29.508,1.253 28.842,1.126 C27.47,0.872 26.075,0.744 24.688,0.744 L24.688,0.744 L24.688,0.744 Z" fill="#D2C029" transform="translate(8)"/></g><path d="M6.162,23.901 C6.162,23.901 16.723,24.921 24.885,25.002 C33.047,25.083 43.136,23.901 43.136,23.901" id="Shape" stroke="#D2C029" stroke-width="1.236" fill="#FBED1F" transform="translate(8)"/></g></g></g></g></svg>