<svg id="Layer_1" data-name="Layer 1" xmlns="http://www.w3.org/2000/svg" viewBox="0 0 100 100"><defs><style>.cls-1{fill:#fff;}</style></defs><title>Artboard 1</title><path class="cls-1" d="M50,2A48,48,0,1,1,2,50,48.05,48.05,0,0,1,50,2m0-2a50,50,0,1,0,50,50A50,50,0,0,0,50,0Z"/><path class="cls-1" d="M33.62,23H45.43v5.61a4.17,4.17,0,1,0,8.35,0V23H66.36a3.72,3.72,0,0,1,3.59,3.74V73.45A3.57,3.57,0,0,1,66.36,77H33.6a3.57,3.57,0,0,1-3.55-3.58V26.55A3.57,3.57,0,0,1,33.62,23m0-2a5.56,5.56,0,0,0-5.56,5.54s0,0,0,0V73.42A5.56,5.56,0,0,0,33.59,79H66.38a5.56,5.56,0,0,0,5.56-5.54s0,0,0,0V26.74A5.7,5.7,0,0,0,66.36,21H51.78v7.61a2.17,2.17,0,1,1-4.35,0V21H33.62Z"/></svg>