<svg id="Layer_1" data-name="Layer 1" xmlns="http://www.w3.org/2000/svg" viewBox="0 0 50 50"><defs><style>.cls-1{fill:#87c240;}.cls-2{isolation:isolate;}.cls-3{fill:#fff;}</style></defs><title>detail-faq-green</title><circle class="cls-1" cx="25" cy="25" r="24.5"/><g class="cls-2"><path class="cls-3" d="M21.56,30.84A6.51,6.51,0,0,1,22.4,27a13.87,13.87,0,0,1,3-3,13.51,13.51,0,0,0,2.17-2.4,5.78,5.78,0,0,0,.84-2.88,4.05,4.05,0,0,0-1-2.76,3.55,3.55,0,0,0-2.65-1,3.47,3.47,0,0,0-2.41.84,3.16,3.16,0,0,0-1,2.4H16V18.1a6.49,6.49,0,0,1,2.41-5.53,9.84,9.84,0,0,1,6.38-1.92,9.54,9.54,0,0,1,6.62,2.16,7.51,7.51,0,0,1,2.41,5.77A7.54,7.54,0,0,1,32.39,23a13.24,13.24,0,0,1-3.49,3.36,5.24,5.24,0,0,0-1.56,1.8A6.74,6.74,0,0,0,27,30.6C27.1,30.84,21.56,30.84,21.56,30.84Zm5.54,7.81H21.56V34H27.1Z"/></g></svg>