<svg width="49" height="64" viewBox="0 0 49 64" xmlns="http://www.w3.org/2000/svg"><title>Slice 1</title><desc>Created with Sketch.</desc><g id="Page-1" fill="none" fill-rule="evenodd"><g id="solar-support"><path d="M43.708,33.19 C43.386,32.695 42.705,34.059 42.401,34.591 C42.401,34.542 42.405,33.063 42.405,33.014 C42.405,23.31 34.562,15.443 24.534,15.443 C14.505,15.443 6.377,23.31 6.377,33.014 C6.377,33.423 6.396,33.827 6.425,34.229 C5.894,33.098 5.287,32.378 4.758,33.19 C3.463,35.174 3.102,41.927 9.031,47.028 C9.653,48.929 10.767,54.023 13.371,57.304 C15.62,60.139 18.978,63.564 24.095,63.564 L24.373,63.564 C29.531,63.564 32.902,60.103 35.151,57.238 C37.716,53.968 38.818,48.917 39.436,47.028 C45.365,41.928 45.004,35.175 43.708,33.19 L43.708,33.19 Z" id="Shape" fill="#669E42"/><path d="M25.169,29.418 C18.463,29.418 1.852,28.327 1.685,28.316 L1.107,28.278 L1.107,23.685 L2.626,23.685 C3.15,17.867 5.996,12.432 10.503,8.67 L11.363,5.614 L19.675,2.832 L19.706,3.169 C19.704,2.783 19.705,2.501 19.71,2.395 L19.736,1.918 L20.203,1.822 C21.702,1.516 23.21,1.36 24.687,1.36 C26.036,1.36 27.394,1.485 28.722,1.731 C29.12,1.807 29.226,1.827 29.253,3.186 L29.287,2.689 L37.415,5.531 L38.258,8.191 C43.12,11.971 46.183,17.581 46.73,23.684 L48.031,23.684 L48.031,28.274 L47.457,28.315 C47.302,28.326 31.89,29.413 25.205,29.417 L25.169,29.418 L25.169,29.418 Z" id="Shape" fill="#FBED1F"/><path d="M24.688,1.98 C26.026,1.98 27.338,2.105 28.61,2.34 C28.684,2.354 28.604,8.23 28.68,8.245 C28.745,8.258 29.464,8.248 29.531,8.261 L29.849,3.542 L36.919,6.014 L37.728,8.564 C42.539,12.236 45.752,17.887 46.158,24.304 L47.413,24.304 L47.413,27.7 C47.413,27.7 31.945,28.796 25.205,28.801 L25.169,28.801 C18.406,28.8 1.725,27.7 1.725,27.7 L1.725,24.304 L3.198,24.304 C3.587,18.15 6.56,12.701 11.046,9.024 L11.87,6.097 L19.132,3.666 C19.132,3.666 19.436,6.949 19.538,8.184 C19.545,8.189 19.563,8.192 19.589,8.192 C19.752,8.192 20.238,8.097 20.409,8.04 C20.383,7.527 20.302,2.929 20.328,2.429 C21.725,2.144 23.206,1.98 24.688,1.98 L24.688,1.98 Z M24.688,0.744 C23.169,0.744 21.619,0.904 20.08,1.218 L19.145,1.41 L19.094,2.363 C19.094,2.367 19.094,2.372 19.093,2.376 L18.739,2.495 L11.477,4.926 L10.857,5.134 L10.68,5.762 L9.96,8.32 C5.558,12.059 2.728,17.363 2.068,23.068 L1.725,23.068 L0.489,23.068 L0.489,24.304 L0.489,27.7 L0.489,28.857 L1.643,28.933 C2.326,28.978 18.442,30.036 25.168,30.036 C31.911,30.032 46.866,28.977 47.499,28.932 L48.648,28.85 L48.648,27.7 L48.648,24.304 L48.648,23.068 L47.412,23.068 L47.288,23.068 C46.6,17.076 43.551,11.59 38.789,7.824 L38.098,5.64 L37.911,5.051 L37.328,4.847 L30.258,2.375 L29.827,2.225 C29.742,1.659 29.508,1.253 28.842,1.126 C27.47,0.872 26.075,0.744 24.688,0.744 L24.688,0.744 L24.688,0.744 Z" id="Shape" fill="#D2C029"/><path d="M6.162,23.901 C6.162,23.901 16.723,24.921 24.885,25.002 C33.047,25.083 43.136,23.901 43.136,23.901" id="Shape" stroke="#D2C029" stroke-width="1.236" fill="#FBED1F"/></g></g></svg>