<svg id="Layer_1" data-name="Layer 1" xmlns="http://www.w3.org/2000/svg" viewBox="0 0 45 45"><defs><style>.cls-1{fill:#fff;}.cls-2{fill:#d1d1d1;}</style></defs><title>support-icon-gray-download</title><rect class="cls-1" width="45" height="45"/><path class="cls-2" d="M29.51,2.12H7.5V42.88h30V10.11ZM10,40.35V4.65H26.43V13.1H35V40.27H10Z"/><path class="cls-2" d="M30.31,26.06l-6.76,6.76a1,1,0,0,1-.66.28.84.84,0,0,1-.63-.25h0l-6.78-6.78h0a.88.88,0,0,1-.27-.65.84.84,0,0,1,.25-.63h0l.77-.77a1,1,0,0,1,.66-.28.84.84,0,0,1,.63.25h0l3.76,3.76V19.42a.94.94,0,0,1,.92-.92h1.33a.94.94,0,0,1,.91.92v8.32L28.21,24a1,1,0,0,1,.65-.27.84.84,0,0,1,.63.25h0l.77.77a1,1,0,0,1,.28.66A.86.86,0,0,1,30.31,26.06Z"/></svg>