<?xml version="1.0" encoding="UTF-8" standalone="no"?>
<svg width="173px" height="149px" viewBox="0 0 173 149" version="1.1" xmlns="http://www.w3.org/2000/svg" xmlns:xlink="http://www.w3.org/1999/xlink" xmlns:sketch="http://www.bohemiancoding.com/sketch/ns">
    <!-- Generator: Sketch 3.2.2 (9983) - http://www.bohemiancoding.com/sketch -->
    <title>Slice 1</title>
    <desc>Created with Sketch.</desc>
    <defs></defs>
    <g id="Page-1" stroke="none" stroke-width="1" fill="none" fill-rule="evenodd" sketch:type="MSPage">
        <path d="M24.5738636,146.039735 C24.5738636,148.013245 23.5909091,149 21.625,149 L2.94886364,149 C0.982954545,149 0,148.013245 0,146.039735 L0,127.291391 C0,125.317881 0.982954545,124.331126 2.94886364,124.331126 L21.625,124.331126 C23.5909091,124.331126 24.5738636,125.317881 24.5738636,127.291391 L24.5738636,146.039735 L24.5738636,146.039735 Z M61.9261364,146.039735 C61.9261364,148.013245 60.9431818,149 58.9772727,149 L40.3011364,149 C38.3352273,149 37.3522727,148.013245 37.3522727,146.039735 L37.3522727,114.463576 C37.3522727,112.490066 38.3352273,111.503311 40.3011364,111.503311 L58.9772727,111.503311 C60.9431818,111.503311 61.9261364,112.490066 61.9261364,114.463576 L61.9261364,146.039735 L61.9261364,146.039735 Z M99.2784091,146.039735 C99.2784091,148.013245 98.2954545,149 96.3295455,149 L77.6534091,149 C75.6875,149 74.7045455,148.013245 74.7045455,146.039735 L74.7045455,89.794702 C74.7045455,87.8211921 75.6875,86.8344371 77.6534091,86.8344371 L96.3295455,86.8344371 C98.2954545,86.8344371 99.2784091,87.8211921 99.2784091,89.794702 L99.2784091,146.039735 L99.2784091,146.039735 Z M136.630682,146.039735 C136.630682,148.013245 135.647727,149 133.681818,149 L115.005682,149 C113.039773,149 112.056818,148.013245 112.056818,146.039735 L112.056818,53.2847682 C112.056818,51.3112583 113.039773,50.3245033 115.005682,50.3245033 L133.681818,50.3245033 C135.647727,50.3245033 136.630682,51.3112583 136.630682,53.2847682 L136.630682,146.039735 L136.630682,146.039735 Z M173,146.039735 C173,148.013245 172.017045,149 170.051136,149 L151.375,149 C149.409091,149 148.426136,148.013245 148.426136,146.039735 L148.426136,2.9602649 C148.426136,0.986754967 149.409091,0 151.375,0 L170.051136,0 C172.017045,0 173,0.986754967 173,2.9602649 L173,146.039735 L173,146.039735 Z" id="Shape" fill="#F37321" sketch:type="MSShapeGroup"></path>
    </g>
</svg>