<?xml version="1.0" encoding="UTF-8" standalone="no"?>
<svg width="140px" height="137px" viewBox="0 0 140 137" version="1.1" xmlns="http://www.w3.org/2000/svg" xmlns:xlink="http://www.w3.org/1999/xlink" xmlns:sketch="http://www.bohemiancoding.com/sketch/ns">
    <!-- Generator: Sketch 3.2.2 (9983) - http://www.bohemiancoding.com/sketch -->
    <title>Slice 1</title>
    <desc>Created with Sketch.</desc>
    <defs></defs>
    <g id="Page-1" stroke="none" stroke-width="1" fill="none" fill-rule="evenodd" sketch:type="MSPage">
        <path d="M71.4750296,0 C45.8542369,0 23.5197217,14.133169 11.8351797,35.0283284 C13.2348904,34.6018966 14.7563152,34.2973025 16.3994539,34.2973025 C20.9637281,34.2973025 25.4062884,36.4903804 29.5445637,40.6937798 C32.1614142,41.6075623 34.8999788,42.3995071 37.8211143,43.1305331 C37.3342584,45.3845299 36.9691164,48.3695527 36.6039745,50.7453871 C42.2636745,60.6751568 39.768538,67.0716341 35.0825497,73.1635173 L35.2651207,73.1635173 C35.3259777,75.6002706 35.5694057,78.8898875 35.8736906,81.996748 C37.6385433,84.3116636 40.1945369,87.6012805 43.8459563,91.3173293 C42.6896735,85.4691214 41.9593896,78.0370239 41.7768186,73.1635173 L65.9370435,73.1635173 L65.9370435,90.7690598 C59.8513446,90.8908975 52.2442208,91.6219234 45.245667,92.8403001 C47.6190896,95.1552157 49.0796574,97.0436995 50.8445101,98.5666703 C55.8956402,97.8965632 62.2856241,97.5310502 65.9370435,97.4092125 L65.9370435,99.419534 C68.3713231,98.0184008 71.9618855,97.0436995 75.187306,97.0436995 C76.6478737,97.0436995 78.6561544,97.2873748 80.1167221,97.6528878 C85.7155652,97.957482 91.4361222,98.6275891 96.6089663,99.5413716 C95.9395395,101.795368 95.3309696,103.927528 94.5398287,105.998768 C96.6089663,107.826333 98.3129621,109.653898 99.5301018,111.481463 C100.99067,108.191846 102.329523,104.658554 103.424949,100.881586 C108.902078,102.2218 113.892351,103.866609 118.091484,105.816011 C113.70978,111.237787 108.476079,115.928537 102.512094,119.522749 C102.512094,119.644586 102.572951,119.766424 102.572951,119.94918 C102.755522,124.579012 100.808099,128.355979 98.373819,131.523758 C122.838329,121.045719 140,96.7391053 140,68.5336861 C139.878286,30.7640102 109.206363,0 71.4750296,0 L71.4750296,0 Z M39.403396,36.7949746 C33.804553,35.4547603 28.8142798,33.6881141 24.5542905,31.7387115 C31.4311304,23.0273185 40.6205358,16.2044093 51.209652,12.3665229 C46.2193789,18.4584061 42.1419606,26.8652049 39.403396,36.7949746 L39.403396,36.7949746 Z M65.9370435,64.6348808 L41.8376756,64.6348808 C42.0202466,57.324621 41.7768186,50.6235495 43.1765294,44.1661533 C50.7227961,45.5672864 59.8513446,46.6638254 65.9370435,46.8465819 L65.9370435,64.6348808 L65.9370435,64.6348808 Z M68.1887521,39.0489714 L68.1887521,39.0489714 C60.4599145,39.0489714 52.8527907,38.805296 45.9150939,37.5260006 C50.1142262,23.0882374 55.9564972,12.5492794 64.1113338,8.83323065 C65.0850457,8.71139299 65.9370435,8.95506832 65.9370435,8.89414948 L65.9370435,39.0489714 L67.7627532,39.0489714 L68.1887521,39.0489714 L68.1887521,39.0489714 Z M122.229759,36.8558934 C127.341746,45.0799357 130.50631,54.2786794 131.054023,64.6348808 L107.684938,64.6348808 C107.502367,57.324621 106.589513,49.5270105 105.128945,42.7041013 C111.640643,41.1202117 117.422057,39.2317279 122.229759,36.8558934 L122.229759,36.8558934 Z M73.8484522,8.89414948 C73.8484522,8.95506832 76.2827318,9.01598715 77.2564436,9.13782481 C85.4112802,12.8538736 92.1664061,23.6974257 96.3655384,38.1351889 C89.3669846,39.4144844 81.151291,40.1455103 73.8484522,40.267348 L73.8484522,8.89414948 L73.8484522,8.89414948 Z M98.0695341,93.8759202 C90.5841244,92.4747871 81.151291,91.0127351 73.8484522,90.8299786 L73.8484522,73.1635173 L101.112384,73.1635173 C100.929813,78.0370239 99.5301018,87.2357675 98.0695341,93.8759202 L98.0695341,93.8759202 Z M73.8484522,64.6348808 L73.8484522,46.9075007 C81.151291,46.7247442 90.7666953,45.6282052 98.1912481,44.2270721 C99.5909588,50.6844683 100.929813,57.3855398 101.112384,64.6957997 L73.8484522,64.6957997 L73.8484522,64.6348808 Z M91.7404072,12.3056041 C102.329523,16.1434905 111.579786,22.9663997 118.395769,31.6777927 C114.196636,33.6881141 109.145506,35.3938414 103.546663,36.7340557 C100.808099,26.8652049 96.7306803,18.4584061 91.7404072,12.3056041 L91.7404072,12.3056041 Z M121.925474,101.064342 C117.117772,98.7494268 111.397215,97.0436995 105.068088,95.5207287 C106.589513,88.515063 107.502367,78.0370239 107.745795,73.1635173 L131.054023,73.1635173 C130.50631,82.9105305 127.220032,92.7184624 121.925474,101.064342 Z M89.2452706,109.958492 C75.4915909,98.9321833 71.6576006,104.353959 65.4501876,110.56768 C61.1293413,114.892917 50.1142262,105.816011 40.6205358,96.3126735 C31.1268454,86.8093357 22.0591539,75.7830271 26.3800002,71.45779 C32.5874132,65.2440692 38.0036853,61.4061827 26.9885701,47.6385267 C15.973455,33.8708706 8.60975922,44.4707474 2.58491724,50.5017118 C-4.35277958,57.4464587 2.2197753,83.4588 27.840568,109.105628 C53.4613606,134.752457 79.4472952,141.392609 86.3849921,134.386944 C92.409834,128.355979 102.938093,120.984801 89.2452706,109.958492 Z" id="Shape" fill="#F37321" sketch:type="MSShapeGroup"></path>
    </g>
</svg>