<svg width="107" height="138" viewBox="0 0 107 138" xmlns="http://www.w3.org/2000/svg"><title>Slice 1</title><desc>Created with Sketch.</desc><g id="Page-1" fill="none" fill-rule="evenodd"><g id="products_micro_m215_Icon_140x140"><path d="M85.586,0.819 L55.135,0.819 L55.135,17.636 C55.135,20.257 51.174,22.381 48.552,22.381 C45.931,22.381 41.969,20.257 41.969,17.636 L41.969,0.819 L13.133,0.819 C6.207,0.819 0.592,6.434 0.592,13.36 L0.592,117.168 C0.592,124.093 6.207,129.707 13.133,129.707 L85.586,129.707 C92.512,129.707 98.127,124.093 98.127,117.168 L98.127,13.36 C98.127,6.434 92.512,0.819 85.586,0.819 L85.586,0.819 Z" id="Shape" stroke="#C9C9CB" stroke-width="8" fill="#fff" transform="translate(4 4)"/><path d="M25.193,67.17 L29.541,79.744 L29.611,79.744 L33.994,67.17 L38.471,67.17 L38.471,84.232 L35.049,84.232 L35.049,79.146 L35.377,71.611 L35.307,71.599 L30.737,84.232 L28.44,84.232 L23.893,71.646 L23.823,71.658 L24.151,79.146 L24.151,84.232 L20.729,84.232 L20.729,67.17 L25.193,67.17 L25.193,67.17 Z" id="Shape" fill="#C9C9CB" transform="translate(4 4)"/><path d="M52.885,84.232 L41.236,84.232 L41.236,81.994 L46.756,76.076 C47.553,75.162 48.119,74.39 48.455,73.762 C48.791,73.134 48.959,72.549 48.959,72.01 C48.959,71.291 48.766,70.703 48.379,70.246 C47.992,69.789 47.443,69.56 46.733,69.56 C45.944,69.56 45.344,69.828 44.934,70.363 C44.524,70.898 44.319,71.611 44.319,72.502 L40.99,72.502 L40.967,72.432 C40.928,70.893 41.434,69.59 42.485,68.524 C43.536,67.458 44.952,66.924 46.733,66.924 C48.491,66.924 49.872,67.381 50.876,68.295 C51.88,69.209 52.382,70.428 52.382,71.951 C52.382,72.982 52.099,73.933 51.532,74.805 C50.965,75.677 50.03,76.819 48.725,78.233 L45.69,81.538 L45.713,81.597 L52.885,81.597 L52.885,84.232 L52.885,84.232 Z" id="Shape" fill="#C9C9CB" transform="translate(4 4)"/><path d="M62.74,84.232 L59.318,84.232 L59.318,70.193 L55.85,70.193 L55.85,67.779 L62.741,67.17 L62.741,84.232 L62.74,84.232 Z" id="Shape" fill="#C9C9CB" transform="translate(4 4)"/><path d="M67.408,76.674 L68.392,67.17 L77.908,67.17 L77.908,69.912 L71.193,69.912 L70.724,73.85 C71.036,73.616 71.415,73.422 71.861,73.27 C72.307,73.118 72.799,73.038 73.338,73.03 C74.979,73.007 76.25,73.503 77.152,74.518 C78.054,75.533 78.506,76.948 78.506,78.76 C78.506,80.401 78.012,81.764 77.024,82.85 C76.036,83.936 74.612,84.479 72.753,84.479 C71.183,84.479 69.839,84.049 68.722,83.19 C67.605,82.331 67.066,81.151 67.105,79.651 L67.128,79.592 L70.421,79.428 C70.421,80.186 70.636,80.778 71.066,81.203 C71.496,81.628 72.058,81.842 72.754,81.842 C73.551,81.842 74.139,81.56 74.518,80.994 C74.897,80.428 75.086,79.689 75.086,78.777 C75.086,77.795 74.883,77.006 74.477,76.414 C74.071,75.822 73.469,75.525 72.672,75.525 C72.016,75.525 71.514,75.646 71.166,75.888 C70.818,76.13 70.57,76.458 70.422,76.872 L67.408,76.674 L67.408,76.674 Z" id="Shape" fill="#C9C9CB" transform="translate(4 4)"/></g></g></svg>