<svg width="107" height="138" viewBox="0 0 107 138" xmlns="http://www.w3.org/2000/svg"><title>Slice 1</title><desc>Created with Sketch.</desc><g id="Page-1" fill="none" fill-rule="evenodd"><g id="products_micro_c250_Icon_140x140"><path d="M85.586,0.819 L55.135,0.819 L55.135,17.636 C55.135,20.257 51.174,22.381 48.552,22.381 C45.931,22.381 41.969,20.257 41.969,17.636 L41.969,0.819 L13.133,0.819 C6.207,0.819 0.592,6.434 0.592,13.36 L0.592,117.168 C0.592,124.093 6.207,129.707 13.133,129.707 L85.586,129.707 C92.512,129.707 98.127,124.093 98.127,117.168 L98.127,13.36 C98.127,6.434 92.512,0.819 85.586,0.819 L85.586,0.819 Z" id="Shape" stroke="#C9C9CB" stroke-width="8" fill="#fff" transform="translate(4 4)"/><path d="M36.607,78.42 L36.63,78.49 C36.661,80.326 36.101,81.783 34.948,82.861 C33.795,83.939 32.196,84.478 30.149,84.478 C28.094,84.478 26.426,83.818 25.145,82.498 C23.864,81.178 23.223,79.478 23.223,77.4 L23.223,74.013 C23.223,71.943 23.848,70.243 25.098,68.915 C26.348,67.587 27.973,66.923 29.973,66.923 C32.082,66.923 33.731,67.464 34.918,68.546 C36.105,69.628 36.684,71.103 36.652,72.97 L36.629,73.04 L33.301,73.04 C33.301,71.915 33.031,71.054 32.492,70.456 C31.953,69.858 31.113,69.56 29.972,69.56 C28.949,69.56 28.136,69.976 27.534,70.807 C26.932,71.638 26.632,72.698 26.632,73.986 L26.632,77.392 C26.632,78.696 26.948,79.763 27.581,80.594 C28.214,81.426 29.069,81.841 30.147,81.841 C31.217,81.841 32.008,81.554 32.52,80.98 C33.032,80.406 33.288,79.552 33.288,78.419 L36.607,78.419 L36.607,78.42 Z" id="Shape" fill="#C9C9CB" transform="translate(4 4)"/><path d="M50.283,84.232 L38.634,84.232 L38.634,81.994 L44.154,76.076 C44.951,75.162 45.517,74.39 45.853,73.762 C46.189,73.134 46.357,72.549 46.357,72.01 C46.357,71.291 46.164,70.703 45.777,70.246 C45.39,69.789 44.841,69.56 44.131,69.56 C43.342,69.56 42.742,69.828 42.332,70.363 C41.922,70.898 41.717,71.611 41.717,72.502 L38.389,72.502 L38.366,72.432 C38.327,70.893 38.833,69.59 39.884,68.524 C40.935,67.458 42.351,66.924 44.132,66.924 C45.89,66.924 47.271,67.381 48.275,68.295 C49.279,69.209 49.781,70.428 49.781,71.951 C49.781,72.982 49.498,73.933 48.931,74.805 C48.364,75.677 47.429,76.819 46.124,78.233 L43.089,81.538 L43.112,81.597 L50.284,81.597 L50.284,84.232 L50.283,84.232 Z" id="Shape" fill="#C9C9CB" transform="translate(4 4)"/><path d="M52.237,76.674 L53.221,67.17 L62.737,67.17 L62.737,69.912 L56.022,69.912 L55.553,73.85 C55.865,73.616 56.244,73.422 56.69,73.27 C57.136,73.118 57.628,73.038 58.167,73.03 C59.808,73.007 61.079,73.503 61.981,74.518 C62.883,75.533 63.335,76.948 63.335,78.76 C63.335,80.401 62.841,81.764 61.853,82.85 C60.865,83.936 59.441,84.479 57.582,84.479 C56.012,84.479 54.668,84.049 53.551,83.19 C52.434,82.331 51.895,81.151 51.934,79.651 L51.957,79.592 L55.25,79.428 C55.25,80.186 55.465,80.778 55.895,81.203 C56.325,81.628 56.887,81.842 57.583,81.842 C58.38,81.842 58.968,81.56 59.347,80.994 C59.726,80.428 59.915,79.689 59.915,78.777 C59.915,77.795 59.712,77.006 59.306,76.414 C58.9,75.822 58.298,75.525 57.501,75.525 C56.845,75.525 56.343,75.646 55.995,75.888 C55.647,76.13 55.399,76.458 55.251,76.872 L52.237,76.674 L52.237,76.674 Z" id="Shape" fill="#C9C9CB" transform="translate(4 4)"/><path d="M77.07,77.588 C77.07,79.846 76.552,81.559 75.517,82.727 C74.482,83.895 73.081,84.479 71.316,84.479 C69.535,84.479 68.125,83.895 67.086,82.727 C66.047,81.559 65.527,79.846 65.527,77.588 L65.527,73.826 C65.527,71.576 66.045,69.863 67.08,68.687 C68.115,67.511 69.519,66.923 71.293,66.923 C73.059,66.923 74.463,67.511 75.506,68.687 C76.549,69.863 77.07,71.576 77.07,73.826 L77.07,77.588 L77.07,77.588 Z M73.66,73.471 C73.66,72.121 73.457,71.132 73.051,70.503 C72.645,69.875 72.059,69.561 71.293,69.561 C70.52,69.561 69.934,69.873 69.535,70.498 C69.136,71.123 68.937,72.114 68.937,73.472 L68.937,77.91 C68.937,79.284 69.138,80.283 69.541,80.907 C69.944,81.531 70.535,81.844 71.316,81.844 C72.082,81.844 72.664,81.532 73.062,80.907 C73.46,80.282 73.66,79.284 73.66,77.91 L73.66,73.471 L73.66,73.471 Z" id="Shape" fill="#C9C9CB" transform="translate(4 4)"/></g></g></svg>