<?xml version="1.0" encoding="UTF-8" standalone="no"?>
<svg width="107px" height="138px" viewBox="0 0 107 138" version="1.1" xmlns="http://www.w3.org/2000/svg" xmlns:xlink="http://www.w3.org/1999/xlink" xmlns:sketch="http://www.bohemiancoding.com/sketch/ns">
    <!-- Generator: Sketch 3.3.2 (12043) - http://www.bohemiancoding.com/sketch -->
    <title>Slice 1</title>
    <desc>Created with Sketch.</desc>
    <defs></defs>
    <g id="Page-1" stroke="none" stroke-width="1" fill="none" fill-rule="evenodd" sketch:type="MSPage">
        <g id="products_micro_m250_Icon_140x140" sketch:type="MSLayerGroup" transform="translate(4.000000, 4.000000)">
            <path d="M85.586,0.819 L55.135,0.819 L55.135,17.636 C55.135,20.257 51.174,22.381 48.552,22.381 C45.931,22.381 41.969,20.257 41.969,17.636 L41.969,0.819 L13.133,0.819 C6.207,0.819 0.592,6.434 0.592,13.36 L0.592,117.168 C0.592,124.093 6.207,129.707 13.133,129.707 L85.586,129.707 C92.512,129.707 98.127,124.093 98.127,117.168 L98.127,13.36 C98.127,6.434 92.512,0.819 85.586,0.819 L85.586,0.819 Z" id="Shape" stroke="#C9C9CB" stroke-width="8" fill="#FFFFFF" sketch:type="MSShapeGroup"></path>
            <path d="M25.193,67.17 L29.541,79.744 L29.611,79.744 L33.994,67.17 L38.471,67.17 L38.471,84.232 L35.049,84.232 L35.049,79.146 L35.377,71.611 L35.307,71.599 L30.737,84.232 L28.44,84.232 L23.893,71.646 L23.823,71.658 L24.151,79.146 L24.151,84.232 L20.729,84.232 L20.729,67.17 L25.193,67.17 L25.193,67.17 Z" id="Shape" fill="#C9C9CB" sketch:type="MSShapeGroup"></path>
            <path d="M52.884,84.232 L41.235,84.232 L41.235,81.994 L46.755,76.076 C47.552,75.162 48.118,74.39 48.454,73.762 C48.79,73.134 48.958,72.549 48.958,72.01 C48.958,71.291 48.765,70.703 48.378,70.246 C47.991,69.789 47.442,69.56 46.732,69.56 C45.943,69.56 45.343,69.828 44.933,70.363 C44.523,70.898 44.318,71.611 44.318,72.502 L40.99,72.502 L40.967,72.432 C40.928,70.893 41.434,69.59 42.485,68.524 C43.536,67.458 44.952,66.924 46.733,66.924 C48.491,66.924 49.872,67.381 50.876,68.295 C51.88,69.209 52.382,70.428 52.382,71.951 C52.382,72.982 52.099,73.933 51.532,74.805 C50.965,75.677 50.03,76.819 48.725,78.233 L45.69,81.538 L45.713,81.597 L52.885,81.597 L52.885,84.232 L52.884,84.232 Z" id="Shape" fill="#C9C9CB" sketch:type="MSShapeGroup"></path>
            <path d="M54.839,76.674 L55.823,67.17 L65.339,67.17 L65.339,69.912 L58.624,69.912 L58.155,73.85 C58.467,73.616 58.846,73.422 59.292,73.27 C59.738,73.118 60.23,73.038 60.769,73.03 C62.41,73.007 63.681,73.503 64.583,74.518 C65.485,75.533 65.937,76.948 65.937,78.76 C65.937,80.401 65.443,81.764 64.455,82.85 C63.467,83.936 62.043,84.479 60.184,84.479 C58.614,84.479 57.27,84.049 56.153,83.19 C55.036,82.331 54.497,81.151 54.536,79.651 L54.559,79.592 L57.852,79.428 C57.852,80.186 58.067,80.778 58.497,81.203 C58.927,81.628 59.489,81.842 60.185,81.842 C60.982,81.842 61.57,81.56 61.949,80.994 C62.328,80.428 62.517,79.689 62.517,78.777 C62.517,77.795 62.314,77.006 61.908,76.414 C61.502,75.822 60.9,75.525 60.103,75.525 C59.447,75.525 58.945,75.646 58.597,75.888 C58.249,76.13 58.001,76.458 57.853,76.872 L54.839,76.674 L54.839,76.674 Z" id="Shape" fill="#C9C9CB" sketch:type="MSShapeGroup"></path>
            <path d="M79.672,77.588 C79.672,79.846 79.154,81.559 78.119,82.727 C77.084,83.895 75.683,84.479 73.918,84.479 C72.137,84.479 70.727,83.895 69.688,82.727 C68.649,81.559 68.129,79.846 68.129,77.588 L68.129,73.826 C68.129,71.576 68.647,69.863 69.682,68.687 C70.717,67.511 72.121,66.923 73.895,66.923 C75.661,66.923 77.065,67.511 78.108,68.687 C79.151,69.863 79.672,71.576 79.672,73.826 L79.672,77.588 L79.672,77.588 Z M76.262,73.471 C76.262,72.121 76.059,71.132 75.653,70.503 C75.247,69.875 74.661,69.561 73.895,69.561 C73.122,69.561 72.536,69.873 72.137,70.498 C71.738,71.123 71.539,72.114 71.539,73.472 L71.539,77.91 C71.539,79.284 71.74,80.283 72.143,80.907 C72.546,81.531 73.137,81.844 73.918,81.844 C74.684,81.844 75.266,81.532 75.664,80.907 C76.062,80.282 76.262,79.284 76.262,77.91 L76.262,73.471 L76.262,73.471 Z" id="Shape" fill="#C9C9CB" sketch:type="MSShapeGroup"></path>
        </g>
    </g>
</svg>