<svg id="Layer_1" data-name="Layer 1" xmlns="http://www.w3.org/2000/svg" viewBox="0 0 220 250"><defs><style>.cls-1{fill:#fff;}</style></defs><title>early-adopters-upgrade-program-logo-white</title><path class="cls-1" d="M200.75,211.61H115.67v-1.18c0-11.06,0-18.9-.06-33.51v0a5.67,5.67,0,0,1,2-4.7,8.79,8.79,0,0,1,4.63-1.62c7.16-.81,14.36-1.26,21.07-3.08,14.72-4,26.6-11.83,34.24-25.51,7.47-13.38,9.93-27.6,9.94-42.43,0-3.1-.12-6.24-.3-9.39a6,6,0,0,0-1.28-3.89,4.33,4.33,0,0,0-3.32-1.09l-.69,0c-10.8.67-21.61,1.31-32.37,2.19-.83.07-1.64.14-2.43.14a5.16,5.16,0,0,1-3.29-.9,4.49,4.49,0,0,1-1.43-3.7l.07-1.14c.22-2.27.32-4.49.32-6.65C142.72,50.77,129,33,111,16.91c-1.42-1.27-2.56-1.93-3.55-1.91a4.43,4.43,0,0,0-2.86,1.37c-18.55,16-32.24,34-32.25,58.77,0,1.89.08,3.81.25,5.79l0,1.15a5.11,5.11,0,0,1-1.43,4,5.65,5.65,0,0,1-3.88,1.16c-.6,0-1.25,0-1.93-.11-10.11-1-20.33-1.4-30.55-2l-.63,0a4.65,4.65,0,0,0-3.51,1.2,6.26,6.26,0,0,0-1.48,3.82,99.81,99.81,0,0,0-.71,11.78,82.28,82.28,0,0,0,8.79,37.79c10.8,21.19,30,28.89,52.73,30.72a42.32,42.32,0,0,1,6,.73,5.23,5.23,0,0,1,3.51,2.27,7.24,7.24,0,0,1,.88,2.83,46.2,46.2,0,0,1,.21,5.59c0,7.32,0,12.45,0,17.22v12.56H19.25a1.64,1.64,0,0,0-1.64,1.64v10.1A1.65,1.65,0,0,0,19.25,225h181.5a1.65,1.65,0,0,0,1.64-1.65v-10.1A1.64,1.64,0,0,0,200.75,211.61ZM140.3,105.77c7.69-3.74,16.52-5.36,25.51-6.38h0l1.08-.07a5.57,5.57,0,0,1,4.4,1.84,7.61,7.61,0,0,1,1.55,4.83c0,.48,0,1,0,1.44a48.89,48.89,0,0,1-14.34,34.79,49.5,49.5,0,0,1-35.12,14.36h0l-1.09,0a7.18,7.18,0,0,1-4.41-1.27,5.17,5.17,0,0,1-1.94-4.3,8.73,8.73,0,0,1,.18-1.71h0c1.52-8.12,2.41-16.81,5.81-24.53A37.08,37.08,0,0,1,140.3,105.77Zm-39.77,41.9a21.25,21.25,0,0,1-1,5.6,4.66,4.66,0,0,1-3,3,10.69,10.69,0,0,1-3.2.4c-.73,0-1.54,0-2.43-.1C63.08,154.74,43.8,135.27,43.84,109c0-.42,0-.84,0-1.28h0c.07-2.64.28-4.63,1.08-6.18a4.61,4.61,0,0,1,4.4-2.41,16.47,16.47,0,0,1,4.11.66,186.45,186.45,0,0,1,27.82,9.56c8.32,3.71,11.71,12,14.46,19.53,2.19,6.05,3.24,12.38,4.76,18.44l.05.19Zm8.91-37a9.94,9.94,0,0,1-2.38.28,8,8,0,0,1-1.79-.18,3,3,0,0,1-1.58-.85h0C95,100,87,89.13,87,74.84l0-.8,0-1.1c0-14.86,8.35-25.64,17-35.76a2.48,2.48,0,0,1,1.35-.74,6,6,0,0,1,1.43-.15,9.67,9.67,0,0,1,2.44.32,4.42,4.42,0,0,1,2.13,1.13c11,12.23,16.69,24,16.69,36s-5.58,23.63-16.55,35.87A4,4,0,0,1,109.44,110.7Z"/></svg>